<?xml version="1.0" encoding="UTF-8" standalone="no"?>
<!-- Created with Inkscape (http://www.inkscape.org/) -->

<svg
   width="102.24689mm"
   height="43.147255mm"
   viewBox="0 0 102.24689 43.147255"
   version="1.1"
   id="svg5"
   xml:space="preserve"
   inkscape:version="1.2.2 (b0a8486541, 2022-12-01)"
   sodipodi:docname="device_sidecut.svg"
   inkscape:export-filename="device_sidecut.pdf"
   inkscape:export-xdpi="500"
   inkscape:export-ydpi="500"
   xmlns:inkscape="http://www.inkscape.org/namespaces/inkscape"
   xmlns:sodipodi="http://sodipodi.sourceforge.net/DTD/sodipodi-0.dtd"
   xmlns:xlink="http://www.w3.org/1999/xlink"
   xmlns="http://www.w3.org/2000/svg"
   xmlns:svg="http://www.w3.org/2000/svg"
   xmlns:ns1="http://www.iki.fi/pav/software/textext/"><sodipodi:namedview
     id="namedview7"
     pagecolor="#ffffff"
     bordercolor="#000000"
     borderopacity="0.25"
     inkscape:showpageshadow="2"
     inkscape:pageopacity="0.0"
     inkscape:pagecheckerboard="0"
     inkscape:deskcolor="#d1d1d1"
     inkscape:document-units="mm"
     showgrid="false"
     inkscape:zoom="2.8284271"
     inkscape:cx="208.06617"
     inkscape:cy="106.41957"
     inkscape:window-width="1850"
     inkscape:window-height="1011"
     inkscape:window-x="0"
     inkscape:window-y="0"
     inkscape:window-maximized="1"
     inkscape:current-layer="g606"
     showguides="false" /><defs
     id="defs2"><marker
       style="overflow:visible"
       id="Arrow5"
       refX="0"
       refY="0"
       orient="auto-start-reverse"
       inkscape:stockid="Arrow5"
       markerWidth="5.8874259"
       markerHeight="6.6094756"
       viewBox="0 0 5.8874262 6.6094758"
       inkscape:isstock="true"
       inkscape:collect="always"
       preserveAspectRatio="xMidYMid"><path
         transform="scale(0.5)"
         style="fill:context-stroke;fill-rule:evenodd;stroke:context-stroke;stroke-width:1pt"
         d="m 6,0 c -3,1 -7,3 -9,5 0,0 0,-4 2,-5 -2,-1 -2,-5 -2,-5 2,2 6,4 9,5 z"
         id="path8893" /></marker><marker
       style="overflow:visible"
       id="marker12"
       refX="0"
       refY="0"
       orient="auto"
       inkscape:stockid="Colored dot"
       markerWidth="5.4000001"
       markerHeight="5.4000001"
       viewBox="0 0 5.4 5.4"
       inkscape:isstock="true"
       inkscape:collect="always"
       preserveAspectRatio="xMidYMid"><path
         transform="scale(0.45)"
         style="fill:context-fill;fill-rule:evenodd;stroke:context-stroke;stroke-width:2"
         d="M 5,0 C 5,2.76 2.76,5 0,5 -2.76,5 -5,2.76 -5,0 c 0,-2.76 2.3,-5 5,-5 2.76,0 5,2.24 5,5 z"
         sodipodi:nodetypes="sssss"
         id="path12" /></marker><linearGradient
       id="linearGradient7"
       inkscape:collect="always"><stop
         style="stop-color:#ffffff;stop-opacity:0;"
         offset="0.09549105"
         id="stop8" /><stop
         style="stop-color:#800080;stop-opacity:0.69999999;"
         offset="0.5"
         id="stop10" /><stop
         style="stop-color:#ffffff;stop-opacity:0;"
         offset="0.89656919"
         id="stop9" /></linearGradient><path
       id="MJX-39-TEX-N-47"
       d="m 56,342 q 0,86 33,158 33,72 85,115 52,43 109,66 57,23 108,24 3,0 9,0 6,0 8,-1 91,0 161,-68 l 13,-12 30,39 q 27,37 31,41 1,0 4,0 3,0 6,1 h 4 q 3,0 9,-6 V 419 l -6,-6 h -34 q -6,6 -7,17 -9,82 -48,142 -39,60 -95,79 -19,7 -50,7 -25,0 -50,-4 -25,-4 -60,-21 -35,-17 -62,-41 -27,-24 -49,-73 -22,-49 -28,-108 -4,-42 -4,-76 0,-76 19,-134 19,-58 46,-90 27,-32 64,-53 37,-21 68,-27 31,-6 61,-7 47,0 82,21 35,21 46,55 3,10 3,60 v 52 q -1,1 -5,4 -4,3 -6,4 -2,1 -9,3 -7,2 -16,2 -9,0 -24,1 -15,1 -39,1 h -26 v 46 h 12 l 160,-3 q 106,0 118,3 h 8 v -46 h -14 q -47,0 -53,-12 -2,-4 -2,-107 V 6 q -6,-6 -9,-6 -4,0 -18,10 -22,15 -39,32 L 587,54 Q 571,27 524,3 477,-21 406,-22 317,-22 238,22 159,66 108,151 57,236 56,342 Z" /><path
       id="MJX-39-TEX-N-61"
       d="m 137,305 q 0,0 -22,0 -22,0 -37,15 -15,15 -15,39 0,35 34,62 34,27 121,27 73,0 118,-32 45,-32 60,-76 5,-14 5,-31 0,-17 1,-115 v -70 q 0,-48 5,-66 5,-18 21,-18 15,0 20,16 5,16 5,53 v 36 h 40 V 106 Q 492,66 490,59 481,29 455,12 429,-5 400,-6 371,-7 353,12 335,31 329,54 v 4 l -2,-3 q -2,-3 -5,-6 -3,-3 -8,-9 -5,-6 -12,-11 -7,-5 -15,-12 -8,-7 -18,-11 -10,-4 -22,-8 -12,-4 -26,-6 -14,-2 -31,-3 -60,0 -108,31 -48,31 -48,87 0,21 7,40 7,19 27,41 20,22 48,37 28,15 78,28 50,13 110,15 h 14 v 22 q 0,34 -6,50 -22,71 -97,71 -18,0 -34,-1 -16,-1 -25,-4 -9,-3 -8,-3 22,-15 22,-44 0,-25 -16,-39 z M 126,106 q 0,-31 24,-55 24,-24 59,-25 38,0 67,23 29,23 39,60 2,7 3,66 0,58 -1,58 -8,0 -21,-1 -13,-1 -45,-9 -32,-8 -58,-20 -26,-12 -46,-37 -20,-25 -21,-60 z" /><path
       id="MJX-39-TEX-N-74"
       d="m 27,422 q 53,4 82,56 29,52 32,122 v 15 h 40 V 431 H 316 V 385 H 181 V 241 q 1,-125 1,-141 0,-16 7,-32 14,-39 49,-39 44,0 54,71 1,8 1,46 v 35 h 40 v -35 -12 q 0,-77 -42,-117 -27,-27 -70,-27 -34,0 -59,12 -25,12 -38,31 -13,19 -19,35 -6,16 -7,32 -1,7 -1,148 V 385 H 18 v 37 z" /><path
       id="MJX-39-TEX-N-65"
       d="m 28,218 q 0,55 20,100 20,45 50,73 30,28 65,42 35,14 66,15 53,0 91,-18 38,-18 58,-50 20,-32 28,-64 8,-32 9,-71 0,-7 -7,-14 H 126 v -15 q 0,-148 100,-180 20,-6 44,-6 42,0 72,32 17,17 27,42 l 10,24 q 3,3 16,3 h 3 q 17,0 17,-10 0,-4 -3,-13 Q 393,53 349,21 305,-11 250,-11 155,-11 92,58 29,127 28,218 Z m 305,57 q -11,128 -95,136 h -2 q -8,0 -16,-1 -8,-1 -25,-8 -17,-7 -29,-21 -12,-14 -23,-41 -11,-27 -16,-66 v -7 h 206 z" /><path
       id="MJX-38-TEX-N-53"
       d="m 55,507 q 0,83 57,140 57,57 131,57 h 14 q 85,0 148,-63 l 21,31 q 5,7 10,15 5,8 10,13 l 3,4 q 1,0 4,0 3,0 6,1 h 4 q 3,0 9,-6 V 462 l -6,-6 h -18 q -11,0 -13,3 -2,3 -5,20 -17,126 -101,167 -37,16 -75,16 -53,0 -86,-36 -33,-36 -33,-84 0,-34 17,-62 17,-28 48,-45 10,-4 86,-23 76,-19 84,-23 57,-22 93,-75 36,-53 37,-123 0,-81 -52,-146 -52,-65 -147,-66 -56,0 -100,17 -44,17 -61,31 L 122,41 Q 118,36 107,21 96,6 87,-7 78,-20 78,-21 76,-22 68,-22 h -4 q -3,0 -9,6 v 117 q 0,119 1,121 2,5 20,5 h 13 q 6,-6 6,-13 0,-32 10,-63 10,-31 34,-61 24,-30 66,-48 42,-18 100,-18 47,0 81,38 34,38 34,93 0,43 -22,78 -22,35 -58,48 -56,14 -74,19 -5,1 -27,6 -22,5 -33,8 -11,3 -32,11 -21,8 -33,18 -12,10 -29,24 -17,14 -27,35 -30,49 -30,105 z" /><path
       id="MJX-38-TEX-N-6F"
       d="m 28,214 q 0,95 65,164 65,69 157,70 90,0 155,-68 65,-68 66,-165 Q 471,120 407,55 343,-10 250,-10 153,-10 91,57 29,124 28,214 Z M 250,30 q 122,0 122,163 v 32 25 q 0,22 -1,38 -1,16 -7,38 -6,22 -16,36 -10,14 -31,28 -21,14 -49,20 -5,1 -16,1 -30,0 -57,-12 -43,-22 -56,-61 -13,-39 -13,-92 v -20 q 0,-96 19,-135 32,-61 105,-61 z" /><path
       id="MJX-38-TEX-N-75"
       d="M 383,58 Q 327,-10 256,-10 h -7 q -125,0 -144,99 -1,7 -2,137 -1,109 -1,122 0,13 -6,21 -10,16 -60,16 H 25 v 23 q 0,23 2,23 l 11,1 q 10,1 29,2 19,1 38,2 17,1 37,2 20,1 30,3 10,2 12,1 h 3 V 261 q 1,-184 3,-197 3,-15 14,-24 20,-14 60,-14 26,0 47,9 21,9 32,23 11,14 20,32 9,18 12,30 3,12 4,24 0,1 0,17 0,16 1,40 1,24 0,47 v 67 q 0,46 -10,57 -10,11 -50,13 h -18 v 46 q 2,0 76,5 74,5 79,6 h 7 V 264 q 0,-180 1,-183 3,-20 14,-26 11,-6 45,-9 h 18 V 0 q -2,0 -75,-5 -73,-5 -77,-6 h -7 z" /><path
       id="MJX-38-TEX-N-72"
       d="m 36,46 h 14 q 39,0 47,14 v 8 q 0,9 0,23 0,14 1,31 1,17 0,39 -1,22 0,42 0,31 0,66 0,35 0,59 l -1,23 q -3,19 -14,25 -11,6 -45,9 H 20 v 23 q 0,23 2,23 l 10,1 q 10,1 28,2 18,1 36,2 16,1 35,2 19,1 29,3 10,2 11,1 h 3 v -69 q 39,68 97,68 h 6 q 45,0 66,-22 21,-22 21,-46 0,-21 -13,-36 -13,-15 -38,-15 -25,0 -37,16 -12,16 -13,34 0,9 2,16 2,7 5,12 3,5 3,5 -2,2 -23,-4 -16,-8 -24,-15 -47,-45 -47,-179 v -53 q 0,-13 0,-27 0,-14 0,-26 0,-12 1,-20 1,-8 0,-15 v -5 q 1,-2 3,-4 2,-2 5,-3 3,-1 5,-3 2,-2 7,-2 5,0 7,-1 2,-1 9,-1 7,0 9,0 2,0 10,-1 8,-1 10,0 h 31 V 0 h -9 Q 249,3 140,3 37,3 28,0 h -8 v 46 z" /><path
       id="MJX-38-TEX-N-63"
       d="m 370,305 q 0,0 -21,0 -21,0 -36,15 -15,15 -16,38 0,23 15,38 5,5 5,6 0,1 -10,2 -26,4 -49,4 -49,0 -80,-32 -47,-47 -47,-157 0,-82 31,-129 41,-61 110,-61 41,0 66,26 25,26 36,62 2,8 5,10 3,2 16,2 h 14 q 6,-6 6,-9 0,-4 -4,-16 Q 407,92 395,71 383,50 366,33 349,16 318,2 287,-12 249,-11 163,-11 99,53 35,117 34,214 q 0,104 65,169 65,65 151,65 86,0 120,-27 34,-27 34,-64 0,-23 -17,-37 z" /><path
       id="MJX-38-TEX-N-65"
       d="m 28,218 q 0,55 20,100 20,45 50,73 30,28 65,42 35,14 66,15 53,0 91,-18 38,-18 58,-50 20,-32 28,-64 8,-32 9,-71 0,-7 -7,-14 H 126 v -15 q 0,-148 100,-180 20,-6 44,-6 42,0 72,32 17,17 27,42 l 10,24 q 3,3 16,3 h 3 q 17,0 17,-10 0,-4 -3,-13 Q 393,53 349,21 305,-11 250,-11 155,-11 92,58 29,127 28,218 Z m 305,57 q -11,128 -95,136 h -2 q -8,0 -16,-1 -8,-1 -25,-8 -17,-7 -29,-21 -12,-14 -23,-41 -11,-27 -16,-66 v -7 h 206 z" /><path
       id="MJX-36-TEX-N-44"
       d="m 130,622 q -7,7 -11,9 -4,2 -16,3 -12,1 -43,3 H 27 v 46 h 201 q 171,-1 191,-1 20,0 42,-6 43,-9 85,-35 42,-26 80,-68 38,-42 59,-103 21,-61 23,-134 Q 708,210 634,116 560,22 442,3 429,1 228,0 H 27 v 46 h 33 q 42,1 51,3 9,2 19,12 z M 593,338 q 0,101 -22,163 -22,62 -78,101 -54,35 -138,35 h -33 -28 q -56,0 -60,-9 -3,-4 -3,-284 0,-282 1,-285 1,-10 16,-11 15,-1 91,-2 h 11 q 106,0 165,49 46,38 62,96 16,58 16,147 z" /><path
       id="MJX-36-TEX-N-72"
       d="m 36,46 h 14 q 39,0 47,14 v 8 q 0,9 0,23 0,14 1,31 1,17 0,39 -1,22 0,42 0,31 0,66 0,35 0,59 l -1,23 q -3,19 -14,25 -11,6 -45,9 H 20 v 23 q 0,23 2,23 l 10,1 q 10,1 28,2 18,1 36,2 16,1 35,2 19,1 29,3 10,2 11,1 h 3 v -69 q 39,68 97,68 h 6 q 45,0 66,-22 21,-22 21,-46 0,-21 -13,-36 -13,-15 -38,-15 -25,0 -37,16 -12,16 -13,34 0,9 2,16 2,7 5,12 3,5 3,5 -2,2 -23,-4 -16,-8 -24,-15 -47,-45 -47,-179 v -53 q 0,-13 0,-27 0,-14 0,-26 0,-12 1,-20 1,-8 0,-15 v -5 q 1,-2 3,-4 2,-2 5,-3 3,-1 5,-3 2,-2 7,-2 5,0 7,-1 2,-1 9,-1 7,0 9,0 2,0 10,-1 8,-1 10,0 h 31 V 0 h -9 Q 249,3 140,3 37,3 28,0 h -8 v 46 z" /><path
       id="MJX-36-TEX-N-61"
       d="m 137,305 q 0,0 -22,0 -22,0 -37,15 -15,15 -15,39 0,35 34,62 34,27 121,27 73,0 118,-32 45,-32 60,-76 5,-14 5,-31 0,-17 1,-115 v -70 q 0,-48 5,-66 5,-18 21,-18 15,0 20,16 5,16 5,53 v 36 h 40 V 106 Q 492,66 490,59 481,29 455,12 429,-5 400,-6 371,-7 353,12 335,31 329,54 v 4 l -2,-3 q -2,-3 -5,-6 -3,-3 -8,-9 -5,-6 -12,-11 -7,-5 -15,-12 -8,-7 -18,-11 -10,-4 -22,-8 -12,-4 -26,-6 -14,-2 -31,-3 -60,0 -108,31 -48,31 -48,87 0,21 7,40 7,19 27,41 20,22 48,37 28,15 78,28 50,13 110,15 h 14 v 22 q 0,34 -6,50 -22,71 -97,71 -18,0 -34,-1 -16,-1 -25,-4 -9,-3 -8,-3 22,-15 22,-44 0,-25 -16,-39 z M 126,106 q 0,-31 24,-55 24,-24 59,-25 38,0 67,23 29,23 39,60 2,7 3,66 0,58 -1,58 -8,0 -21,-1 -13,-1 -45,-9 -32,-8 -58,-20 -26,-12 -46,-37 -20,-25 -21,-60 z" /><path
       id="MJX-36-TEX-N-69"
       d="m 69,609 q 0,28 18,44 18,16 44,16 23,-2 40,-17 17,-15 17,-43 0,-30 -17,-45 -17,-15 -42,-15 -25,0 -42,15 -17,15 -18,45 z M 247,0 Q 232,3 143,3 132,3 106,3 80,3 56,1 L 34,0 h -8 v 46 h 16 q 28,0 49,3 9,4 11,11 2,7 2,42 v 103 88 q 0,52 -2,66 -2,14 -14,19 -14,7 -47,7 H 30 v 23 q 0,23 2,23 l 10,1 q 10,1 28,2 18,1 36,2 17,1 36,2 19,1 29,3 10,2 11,1 h 3 V 62 q 5,-10 12,-12 7,-2 35,-4 h 23 V 0 Z" /><path
       id="MJX-36-TEX-N-6E"
       d="m 41,46 h 14 q 39,0 47,14 v 8 q 0,9 0,23 0,14 0,31 0,17 1,39 1,22 0,42 0,31 0,66 0,35 -1,59 v 23 q -3,19 -14,25 -11,6 -45,9 H 25 v 23 q 0,23 2,23 l 10,1 q 10,1 28,2 18,1 37,2 17,1 36,2 19,1 29,3 10,2 11,1 h 3 v -40 q 0,-38 1,-38 1,0 5,5 4,5 12,15 8,10 19,18 11,8 29,19 18,11 38,16 20,5 51,5 114,-4 127,-113 1,-7 1,-139 v -86 q 0,-38 2,-45 2,-7 11,-10 21,-3 49,-3 h 16 V 0 h -8 L 510,1 Q 487,2 460,2 433,2 422,3 319,3 310,0 h -8 v 46 h 16 q 61,0 61,16 1,2 1,138 -1,135 -2,143 -6,28 -20,42 -14,14 -24,17 -10,3 -26,2 -45,0 -79,-34 -27,-27 -34,-55 -7,-28 -8,-83 v -64 -60 q 0,-30 1,-40 1,-10 3,-13 2,-3 9,-6 21,-3 49,-3 h 16 V 0 h -8 L 234,1 Q 210,2 183,2 156,2 145,3 42,3 33,0 h -8 v 46 z" /><path
       id="MJX-34-TEX-N-53"
       d="m 55,507 q 0,83 57,140 57,57 131,57 h 14 q 85,0 148,-63 l 21,31 q 5,7 10,15 5,8 10,13 l 3,4 q 1,0 4,0 3,0 6,1 h 4 q 3,0 9,-6 V 462 l -6,-6 h -18 q -11,0 -13,3 -2,3 -5,20 -17,126 -101,167 -37,16 -75,16 -53,0 -86,-36 -33,-36 -33,-84 0,-34 17,-62 17,-28 48,-45 10,-4 86,-23 76,-19 84,-23 57,-22 93,-75 36,-53 37,-123 0,-81 -52,-146 -52,-65 -147,-66 -56,0 -100,17 -44,17 -61,31 L 122,41 Q 118,36 107,21 96,6 87,-7 78,-20 78,-21 76,-22 68,-22 h -4 q -3,0 -9,6 v 117 q 0,119 1,121 2,5 20,5 h 13 q 6,-6 6,-13 0,-32 10,-63 10,-31 34,-61 24,-30 66,-48 42,-18 100,-18 47,0 81,38 34,38 34,93 0,43 -22,78 -22,35 -58,48 -56,14 -74,19 -5,1 -27,6 -22,5 -33,8 -11,3 -32,11 -21,8 -33,18 -12,10 -29,24 -17,14 -27,35 -30,49 -30,105 z" /><path
       id="MJX-34-TEX-N-69"
       d="m 69,609 q 0,28 18,44 18,16 44,16 23,-2 40,-17 17,-15 17,-43 0,-30 -17,-45 -17,-15 -42,-15 -25,0 -42,15 -17,15 -18,45 z M 247,0 Q 232,3 143,3 132,3 106,3 80,3 56,1 L 34,0 h -8 v 46 h 16 q 28,0 49,3 9,4 11,11 2,7 2,42 v 103 88 q 0,52 -2,66 -2,14 -14,19 -14,7 -47,7 H 30 v 23 q 0,23 2,23 l 10,1 q 10,1 28,2 18,1 36,2 17,1 36,2 19,1 29,3 10,2 11,1 h 3 V 62 q 5,-10 12,-12 7,-2 35,-4 h 23 V 0 Z" /><path
       id="MJX-34-TEX-N-2B"
       d="m 56,237 q 0,0 0,13 0,13 14,20 h 299 v 150 l 1,150 q 10,13 19,13 13,0 20,-15 V 270 h 298 q 15,-8 15,-20 0,-12 -15,-20 H 409 V -68 q -8,-14 -18,-14 h -2 -2 q -12,0 -18,14 V 230 H 70 q -14,7 -14,20 z" /><path
       id="MJX-28-TEX-N-53"
       d="m 55,507 q 0,83 57,140 57,57 131,57 h 14 q 85,0 148,-63 l 21,31 q 5,7 10,15 5,8 10,13 l 3,4 q 1,0 4,0 3,0 6,1 h 4 q 3,0 9,-6 V 462 l -6,-6 h -18 q -11,0 -13,3 -2,3 -5,20 -17,126 -101,167 -37,16 -75,16 -53,0 -86,-36 -33,-36 -33,-84 0,-34 17,-62 17,-28 48,-45 10,-4 86,-23 76,-19 84,-23 57,-22 93,-75 36,-53 37,-123 0,-81 -52,-146 -52,-65 -147,-66 -56,0 -100,17 -44,17 -61,31 L 122,41 Q 118,36 107,21 96,6 87,-7 78,-20 78,-21 76,-22 68,-22 h -4 q -3,0 -9,6 v 117 q 0,119 1,121 2,5 20,5 h 13 q 6,-6 6,-13 0,-32 10,-63 10,-31 34,-61 24,-30 66,-48 42,-18 100,-18 47,0 81,38 34,38 34,93 0,43 -22,78 -22,35 -58,48 -56,14 -74,19 -5,1 -27,6 -22,5 -33,8 -11,3 -32,11 -21,8 -33,18 -12,10 -29,24 -17,14 -27,35 -30,49 -30,105 z" /><path
       id="MJX-28-TEX-N-69"
       d="m 69,609 q 0,28 18,44 18,16 44,16 23,-2 40,-17 17,-15 17,-43 0,-30 -17,-45 -17,-15 -42,-15 -25,0 -42,15 -17,15 -18,45 z M 247,0 Q 232,3 143,3 132,3 106,3 80,3 56,1 L 34,0 h -8 v 46 h 16 q 28,0 49,3 9,4 11,11 2,7 2,42 v 103 88 q 0,52 -2,66 -2,14 -14,19 -14,7 -47,7 H 30 v 23 q 0,23 2,23 l 10,1 q 10,1 28,2 18,1 36,2 17,1 36,2 19,1 29,3 10,2 11,1 h 3 V 62 q 5,-10 12,-12 7,-2 35,-4 h 23 V 0 Z" /><path
       id="MJX-28-TEX-N-4F"
       d="m 56,340 q 0,83 30,154 30,71 78,116 48,45 106,70 58,25 118,25 133,0 233,-104 Q 721,497 722,341 722,260 693,191 664,122 617,75 570,28 510,4 450,-20 388,-22 326,-24 267,3 208,30 160,74 112,118 85,189 58,260 56,340 Z m 411,307 q -41,18 -79,18 -28,0 -57,-11 -29,-11 -62,-34 -33,-23 -56,-71 -23,-48 -34,-110 -5,-28 -5,-85 0,-210 103,-293 50,-41 108,-41 h 4 2 q 83,0 146,79 66,89 66,255 0,57 -5,85 -21,153 -131,208 z" /><path
       id="MJX-28-TEX-N-32"
       d="m 109,429 q -27,0 -43,18 -16,18 -16,44 0,71 53,123 53,52 132,52 91,0 152,-56 61,-56 62,-145 0,-43 -20,-82 -20,-39 -48,-68 -28,-29 -80,-74 -36,-31 -100,-92 l -59,-56 76,-1 q 157,0 167,5 7,2 24,89 v 3 h 40 v -3 Q 448,183 436,95 424,7 421,3 V 0 H 50 v 19 12 q 0,7 6,15 6,8 30,35 29,32 50,56 9,10 34,37 25,27 34,37 9,10 29,33 20,23 28,34 8,11 23,30 15,19 21,32 6,13 15,29 9,16 13,32 4,16 7,30 3,14 3,33 0,63 -34,109 -34,46 -97,46 -33,0 -58,-17 -25,-17 -35,-33 -10,-16 -10,-19 0,-1 5,-1 18,0 37,-14 19,-14 19,-46 0,-25 -16,-42 -16,-17 -45,-18 z" /><path
       id="MJX-25-TEX-N-54"
       d="m 36,443 q 1,5 10,115 9,110 9,113 v 6 h 611 v -6 q 1,-5 10,-115 9,-110 9,-113 v -6 h -40 v 6 q 0,2 -3,35 -3,33 -11,66 -8,33 -21,49 -17,21 -55,32 -21,5 -77,5 h -27 -8 q -26,0 -29,-12 -1,-2 -1,-279 V 63 q 7,-10 26,-13 19,-3 89,-4 h 30 V 0 H 545 L 361,3 Q 186,1 177,0 h -13 v 46 h 30 q 70,0 89,3 19,3 26,14 v 276 211 q 0,70 -5,75 -5,5 -33,5 H 244 224 Q 154,630 119,601 101,585 93,554 85,523 81,486 77,449 76,443 v -6 H 36 Z" /><path
       id="MJX-25-TEX-N-69"
       d="m 69,609 q 0,28 18,44 18,16 44,16 23,-2 40,-17 17,-15 17,-43 0,-30 -17,-45 -17,-15 -42,-15 -25,0 -42,15 -17,15 -18,45 z M 247,0 Q 232,3 143,3 132,3 106,3 80,3 56,1 L 34,0 h -8 v 46 h 16 q 28,0 49,3 9,4 11,11 2,7 2,42 v 103 88 q 0,52 -2,66 -2,14 -14,19 -14,7 -47,7 H 30 v 23 q 0,23 2,23 l 10,1 q 10,1 28,2 18,1 36,2 17,1 36,2 19,1 29,3 10,2 11,1 h 3 V 62 q 5,-10 12,-12 7,-2 35,-4 h 23 V 0 Z" /><path
       id="MJX-24-TEX-N-41"
       d="M 255,0 Q 240,3 140,3 48,3 39,0 h -7 v 46 h 15 q 72,3 92,42 1,3 53,157 52,154 103,308 51,154 53,155 3,8 18,8 h 10 q 20,-1 24,-7 2,-2 108,-319 L 617,67 q 7,-13 19,-16 12,-3 51,-5 h 30 V 0 h -9 Q 699,3 581,3 458,3 437,0 h -10 v 46 h 13 q 70,0 70,18 0,2 -24,74 l -24,71 H 229 L 209,150 Q 189,91 189,85 189,72 209,59 229,46 259,46 h 5 V 0 Z M 447,255 345,557 244,256 q 0,-1 101,-1 z" /><path
       id="MJX-24-TEX-N-75"
       d="M 383,58 Q 327,-10 256,-10 h -7 q -125,0 -144,99 -1,7 -2,137 -1,109 -1,122 0,13 -6,21 -10,16 -60,16 H 25 v 23 q 0,23 2,23 l 11,1 q 10,1 29,2 19,1 38,2 17,1 37,2 20,1 30,3 10,2 12,1 h 3 V 261 q 1,-184 3,-197 3,-15 14,-24 20,-14 60,-14 26,0 47,9 21,9 32,23 11,14 20,32 9,18 12,30 3,12 4,24 0,1 0,17 0,16 1,40 1,24 0,47 v 67 q 0,46 -10,57 -10,11 -50,13 h -18 v 46 q 2,0 76,5 74,5 79,6 h 7 V 264 q 0,-180 1,-183 3,-20 14,-26 11,-6 45,-9 h 18 V 0 q -2,0 -75,-5 -73,-5 -77,-6 h -7 z" /><path
       id="MJX-20-TEX-V-210F"
       d="m 182,599 q 0,12 -8,16 -8,4 -41,4 -15,0 -19,2 -4,2 -5,9 0,6 5,26 5,20 8,25 3,4 80,7 70,7 84,7 18,0 18,-11 0,-2 -9,-40 -9,-38 -13,-47 0,-5 78,-5 h 39 q 31,0 46,-5 15,-5 15,-24 0,-11 -9,-22 l -9,-6 H 266 l -15,-67 q -4,-15 -8,-32 -4,-17 -7,-27 -3,-10 -3,-10 0,-4 11,5 51,37 113,37 48,0 88,-24 40,-24 40,-84 0,-49 -36,-155 -36,-106 -37,-120 -1,-14 14,-14 21,0 40,24 19,19 34,62 l 9,22 h 22 12 q 19,0 19,-8 0,-16 -16,-51 -16,-35 -52,-70 -36,-35 -79,-36 -30,0 -56,16 -26,16 -37,41 -4,8 -4,33 0,22 34,119 34,97 34,141 0,49 -40,49 -28,0 -60,-16 -19,-9 -41,-32 -22,-23 -34,-46 -4,-5 -18,-57 Q 179,183 162,113 145,43 138,21 128,7 122,4 105,-12 83,-12 66,-12 54,-2 42,8 42,26 l 124,504 q 0,4 -5,4 -5,0 -32,1 -2,0 -7,0 -5,0 -10,-1 -38,0 -38,28 0,8 3,14 3,6 7,9 4,3 12,4 8,1 13,2 5,1 15,1 10,0 14,0 l 44,3 z" /><path
       id="MJX-20-TEX-I-1D714"
       d="m 495,384 q 0,22 19,40 19,18 41,19 19,0 34,-18 15,-18 15,-61 0,-30 -12,-86 Q 580,222 555,155 530,88 483,38 436,-12 377,-11 q -80,0 -110,77 -1,2 -7,-5 -59,-72 -135,-72 -110,0 -110,150 0,91 41,186 41,95 67,109 12,7 24,2 13,-7 13,-18 0,-12 -20,-39 -20,-27 -46,-73 -26,-46 -32,-98 -1,-6 -1,-21 0,-63 24,-87 24,-24 58,-24 58,0 102,53 l 8,8 v 19 q 5,141 64,141 31,0 31,-36 0,-18 -10,-48 -10,-30 -20,-55 l -10,-23 q 1,-2 2,-6 1,-4 8,-14 7,-10 16,-18 9,-8 24,-14 15,-6 35,-7 63,0 108,72 45,72 45,126 0,31 -13,51 -13,20 -25,32 -12,12 -13,27 z" /><path
       id="MJX-17-TEX-N-67"
       d="m 329,409 q 44,44 100,44 30,0 43,-19 13,-19 13,-38 0,-14 -9,-25 -9,-11 -27,-11 -33,0 -37,30 -2,14 3,21 0,1 1,3 v 1 q -28,-3 -53,-22 -8,-5 -8,-7 0,-1 4,-5 4,-4 9,-12 5,-8 11,-18 6,-10 9,-26 3,-16 4,-33 0,-62 -49,-105 -49,-43 -121,-44 -50,0 -99,28 -11,-18 -11,-38 0,-35 26,-52 9,-6 17,-6 8,0 72,-2 84,-1 108,-6 61,-9 96,-41 39,-39 39,-98 0,-67 -78,-103 -60,-31 -142,-31 -83,0 -143,31 -78,35 -78,100 0,36 21,60 21,24 42,33 l 11,6 q -36,31 -36,84 0,47 29,85 -44,44 -44,99 0,63 50,106 50,43 121,44 51,0 95,-26 z m -30,-66 q -5,28 -26,44 -21,16 -52,17 -29,0 -50,-16 -21,-16 -26,-45 -3,-17 -3,-51 0,-44 7,-65 7,-21 30,-35 17,-10 43,-10 22,0 38,7 16,7 23,18 7,11 11,20 4,9 5,15 3,16 3,50 0,34 -3,51 z M 403,-75 q 0,25 -14,41 -14,16 -41,23 -27,7 -49,9 -22,2 -54,2 h -27 q -67,0 -80,-6 -20,-9 -31,-28 -11,-19 -12,-40 0,-10 6,-23 6,-13 21,-30 15,-17 48,-28 33,-11 80,-12 69,0 111,28 42,28 42,64 z" /><path
       id="MJX-17-TEX-N-72"
       d="m 36,46 h 14 q 39,0 47,14 v 8 q 0,9 0,23 0,14 1,31 1,17 0,39 -1,22 0,42 0,31 0,66 0,35 0,59 l -1,23 q -3,19 -14,25 -11,6 -45,9 H 20 v 23 q 0,23 2,23 l 10,1 q 10,1 28,2 18,1 36,2 16,1 35,2 19,1 29,3 10,2 11,1 h 3 v -69 q 39,68 97,68 h 6 q 45,0 66,-22 21,-22 21,-46 0,-21 -13,-36 -13,-15 -38,-15 -25,0 -37,16 -12,16 -13,34 0,9 2,16 2,7 5,12 3,5 3,5 -2,2 -23,-4 -16,-8 -24,-15 -47,-45 -47,-179 v -53 q 0,-13 0,-27 0,-14 0,-26 0,-12 1,-20 1,-8 0,-15 v -5 q 1,-2 3,-4 2,-2 5,-3 3,-1 5,-3 2,-2 7,-2 5,0 7,-1 2,-1 9,-1 7,0 9,0 2,0 10,-1 8,-1 10,0 h 31 V 0 h -9 Q 249,3 140,3 37,3 28,0 h -8 v 46 z" /><path
       id="MJX-17-TEX-N-61"
       d="m 137,305 q 0,0 -22,0 -22,0 -37,15 -15,15 -15,39 0,35 34,62 34,27 121,27 73,0 118,-32 45,-32 60,-76 5,-14 5,-31 0,-17 1,-115 v -70 q 0,-48 5,-66 5,-18 21,-18 15,0 20,16 5,16 5,53 v 36 h 40 V 106 Q 492,66 490,59 481,29 455,12 429,-5 400,-6 371,-7 353,12 335,31 329,54 v 4 l -2,-3 q -2,-3 -5,-6 -3,-3 -8,-9 -5,-6 -12,-11 -7,-5 -15,-12 -8,-7 -18,-11 -10,-4 -22,-8 -12,-4 -26,-6 -14,-2 -31,-3 -60,0 -108,31 -48,31 -48,87 0,21 7,40 7,19 27,41 20,22 48,37 28,15 78,28 50,13 110,15 h 14 v 22 q 0,34 -6,50 -22,71 -97,71 -18,0 -34,-1 -16,-1 -25,-4 -9,-3 -8,-3 22,-15 22,-44 0,-25 -16,-39 z M 126,106 q 0,-31 24,-55 24,-24 59,-25 38,0 67,23 29,23 39,60 2,7 3,66 0,58 -1,58 -8,0 -21,-1 -13,-1 -45,-9 -32,-8 -58,-20 -26,-12 -46,-37 -20,-25 -21,-60 z" /><path
       id="MJX-17-TEX-N-70"
       d="m 36,-148 h 14 q 39,0 47,14 v 8 q 0,7 0,19 0,12 0,30 0,18 1,39 1,21 0,44 -1,23 0,49 1,26 0,51 0,34 0,71 0,37 0,66 0,29 0,53 0,24 -1,39 -1,15 0,16 -3,19 -14,25 -11,6 -45,9 H 20 v 23 q 0,23 2,23 l 10,1 q 10,1 29,2 19,1 37,2 17,1 37,2 20,1 30,3 10,2 11,1 h 3 v -26 l 1,-26 8,7 q 59,44 138,44 81,0 138,-64 57,-64 58,-161 0,-101 -65,-164 -65,-63 -147,-63 -68,0 -120,44 l -8,7 v -85 -56 q 0,-27 2,-33 2,-6 11,-11 21,-3 49,-3 h 16 v -46 h -8 l -24,1 q -23,1 -50,1 -27,0 -38,1 -103,0 -112,-3 h -8 v 46 z m 388,366 q 0,74 -34,129 -34,55 -85,55 -71,0 -123,-65 V 98 q 40,-72 112,-72 51,0 90,54 39,54 40,138 z" /><path
       id="MJX-17-TEX-N-68"
       d="m 41,46 h 14 q 39,0 47,14 v 8 q 0,9 0,23 0,14 0,33 0,19 0,43 0,24 1,50 1,26 0,55 -1,29 0,57 0,37 0,78 0,41 0,75 0,34 -1,60 -1,26 0,44 1,18 0,17 -3,19 -14,25 -11,6 -45,9 H 25 v 23 q 0,23 2,23 l 10,1 q 10,1 29,2 19,1 37,2 17,1 37,2 20,1 30,3 10,2 11,1 h 3 V 367 q 60,75 144,75 123,0 135,-113 1,-7 1,-139 v -86 q 0,-38 2,-45 2,-7 11,-10 21,-3 49,-3 h 16 V 0 h -8 L 510,1 Q 487,2 460,2 433,2 422,3 319,3 310,0 h -8 v 46 h 16 q 61,0 61,16 1,2 1,138 -1,135 -2,143 -6,28 -20,42 -14,14 -24,17 -10,3 -26,2 -45,0 -79,-34 -27,-27 -34,-55 -7,-28 -8,-83 v -64 -60 q 0,-30 1,-40 1,-10 3,-13 2,-3 9,-6 21,-3 49,-3 h 16 V 0 h -8 L 234,1 Q 210,2 183,2 156,2 145,3 42,3 33,0 h -8 v 46 z" /><path
       id="MJX-17-TEX-N-65"
       d="m 28,218 q 0,55 20,100 20,45 50,73 30,28 65,42 35,14 66,15 53,0 91,-18 38,-18 58,-50 20,-32 28,-64 8,-32 9,-71 0,-7 -7,-14 H 126 v -15 q 0,-148 100,-180 20,-6 44,-6 42,0 72,32 17,17 27,42 l 10,24 q 3,3 16,3 h 3 q 17,0 17,-10 0,-4 -3,-13 Q 393,53 349,21 305,-11 250,-11 155,-11 92,58 29,127 28,218 Z m 305,57 q -11,128 -95,136 h -2 q -8,0 -16,-1 -8,-1 -25,-8 -17,-7 -29,-21 -12,-14 -23,-41 -11,-27 -16,-66 v -7 h 206 z" /><path
       id="MJX-17-TEX-N-6E"
       d="m 41,46 h 14 q 39,0 47,14 v 8 q 0,9 0,23 0,14 0,31 0,17 1,39 1,22 0,42 0,31 0,66 0,35 -1,59 v 23 q -3,19 -14,25 -11,6 -45,9 H 25 v 23 q 0,23 2,23 l 10,1 q 10,1 28,2 18,1 37,2 17,1 36,2 19,1 29,3 10,2 11,1 h 3 v -40 q 0,-38 1,-38 1,0 5,5 4,5 12,15 8,10 19,18 11,8 29,19 18,11 38,16 20,5 51,5 114,-4 127,-113 1,-7 1,-139 v -86 q 0,-38 2,-45 2,-7 11,-10 21,-3 49,-3 h 16 V 0 h -8 L 510,1 Q 487,2 460,2 433,2 422,3 319,3 310,0 h -8 v 46 h 16 q 61,0 61,16 1,2 1,138 -1,135 -2,143 -6,28 -20,42 -14,14 -24,17 -10,3 -26,2 -45,0 -79,-34 -27,-27 -34,-55 -7,-28 -8,-83 v -64 -60 q 0,-30 1,-40 1,-10 3,-13 2,-3 9,-6 21,-3 49,-3 h 16 V 0 h -8 L 234,1 Q 210,2 183,2 156,2 145,3 42,3 33,0 h -8 v 46 z" /><path
       id="MJX-13-TEX-N-41"
       d="M 255,0 Q 240,3 140,3 48,3 39,0 h -7 v 46 h 15 q 72,3 92,42 1,3 53,157 52,154 103,308 51,154 53,155 3,8 18,8 h 10 q 20,-1 24,-7 2,-2 108,-319 L 617,67 q 7,-13 19,-16 12,-3 51,-5 h 30 V 0 h -9 Q 699,3 581,3 458,3 437,0 h -10 v 46 h 13 q 70,0 70,18 0,2 -24,74 l -24,71 H 229 L 209,150 Q 189,91 189,85 189,72 209,59 229,46 259,46 h 5 V 0 Z M 447,255 345,557 244,256 q 0,-1 101,-1 z" /><path
       id="MJX-13-TEX-N-6C"
       d="m 42,46 h 14 q 39,0 47,14 v 8 q 0,9 0,23 0,14 0,33 0,19 1,43 1,24 0,50 -1,26 0,55 1,29 0,57 0,37 0,78 0,41 0,75 0,34 0,60 0,26 -1,44 -1,18 0,17 -3,19 -14,25 -11,6 -45,9 H 26 v 23 q 0,23 2,23 l 10,1 q 10,1 29,2 19,1 37,2 17,1 37,2 20,1 30,3 10,2 11,1 h 3 V 379 q 0,-317 1,-319 4,-8 12,-11 21,-3 49,-3 h 16 V 0 h -8 L 232,1 Q 209,2 183,2 157,2 145,3 133,4 107,3 81,2 57,1 L 34,0 h -8 v 46 z" /><path
       id="MJX-13-TEX-N-32"
       d="m 109,429 q -27,0 -43,18 -16,18 -16,44 0,71 53,123 53,52 132,52 91,0 152,-56 61,-56 62,-145 0,-43 -20,-82 -20,-39 -48,-68 -28,-29 -80,-74 -36,-31 -100,-92 l -59,-56 76,-1 q 157,0 167,5 7,2 24,89 v 3 h 40 v -3 Q 448,183 436,95 424,7 421,3 V 0 H 50 v 19 12 q 0,7 6,15 6,8 30,35 29,32 50,56 9,10 34,37 25,27 34,37 9,10 29,33 20,23 28,34 8,11 23,30 15,19 21,32 6,13 15,29 9,16 13,32 4,16 7,30 3,14 3,33 0,63 -34,109 -34,46 -97,46 -33,0 -58,-17 -25,-17 -35,-33 -10,-16 -10,-19 0,-1 5,-1 18,0 37,-14 19,-14 19,-46 0,-25 -16,-42 -16,-17 -45,-18 z" /><path
       id="MJX-13-TEX-N-4F"
       d="m 56,340 q 0,83 30,154 30,71 78,116 48,45 106,70 58,25 118,25 133,0 233,-104 Q 721,497 722,341 722,260 693,191 664,122 617,75 570,28 510,4 450,-20 388,-22 326,-24 267,3 208,30 160,74 112,118 85,189 58,260 56,340 Z m 411,307 q -41,18 -79,18 -28,0 -57,-11 -29,-11 -62,-34 -33,-23 -56,-71 -23,-48 -34,-110 -5,-28 -5,-85 0,-210 103,-293 50,-41 108,-41 h 4 2 q 83,0 146,79 66,89 66,255 0,57 -5,85 -21,153 -131,208 z" /><path
       id="MJX-13-TEX-N-33"
       d="m 127,463 q -27,0 -42,17 -15,17 -16,44 0,55 48,98 48,43 116,43 35,0 44,-1 74,-12 113,-53 39,-41 40,-89 0,-52 -34,-101 -34,-49 -94,-71 l -3,-2 q 0,-1 9,-3 9,-2 29,-9 20,-7 38,-21 82,-53 82,-140 0,-79 -62,-138 -62,-59 -157,-59 -80,0 -138,43 -58,43 -58,109 0,28 18,45 18,17 45,18 28,0 46,-18 18,-18 18,-45 0,-11 -3,-20 -3,-9 -7,-16 -4,-7 -11,-12 -7,-5 -12,-8 -5,-3 -10,-4 -5,-1 -8,-3 l -4,-1 q 51,-45 124,-45 55,0 83,53 17,33 17,101 v 20 q 0,95 -64,127 -15,6 -61,7 l -42,1 -3,2 q -2,3 -2,16 0,18 8,18 28,0 58,5 34,5 62,42 28,37 28,112 v 8 q 0,57 -35,79 -22,14 -47,14 -32,0 -59,-11 -27,-11 -38,-23 -11,-12 -11,-12 h 3 q 3,-1 8,-2 5,-1 10,-5 5,-4 12,-7 7,-3 10,-11 3,-8 8,-15 5,-7 3,-20 0,-22 -14,-39 -14,-17 -45,-18 z" /><linearGradient
       inkscape:collect="always"
       xlink:href="#linearGradient7"
       id="linearGradient9"
       x1="119.488"
       y1="79.125969"
       x2="130.08669"
       y2="79.125969"
       gradientUnits="userSpaceOnUse"
       gradientTransform="matrix(5.6398726,0,0,0.78085684,-579.78462,24.713942)" /><g
       id="id-a9ab0d26-8a2c-4201-bad0-33f2ab88e73b-5">
      <g
   id="id-86a5e4e3-bb43-4161-b29d-eb7ffe2e7ad2-9">
        <path
   d="m 4.078125,-2.296875 h 2.78125 C 7,-2.296875 7.1875,-2.296875 7.1875,-2.5 7.1875,-2.6875 7,-2.6875 6.859375,-2.6875 h -2.78125 v -2.796875 c 0,-0.140625 0,-0.328125 -0.203125,-0.328125 -0.203125,0 -0.203125,0.1875 -0.203125,0.328125 V -2.6875 h -2.78125 c -0.140625,0 -0.328125,0 -0.328125,0.1875 0,0.203125 0.1875,0.203125 0.328125,0.203125 h 2.78125 V 0.5 c 0,0.140625 0,0.328125 0.203125,0.328125 0.203125,0 0.203125,-0.1875 0.203125,-0.328125 z m 0,0"
   id="id-eb9a1393-3020-4ad5-99b6-ef3d834abe06-2" />
      </g>
    </g><g
       id="id-a9ab0d26-8a2c-4201-bad0-33f2ab88e73b-3">
      <g
   id="id-86a5e4e3-bb43-4161-b29d-eb7ffe2e7ad2-2">
        <path
   d="m 4.078125,-2.296875 h 2.78125 C 7,-2.296875 7.1875,-2.296875 7.1875,-2.5 7.1875,-2.6875 7,-2.6875 6.859375,-2.6875 h -2.78125 v -2.796875 c 0,-0.140625 0,-0.328125 -0.203125,-0.328125 -0.203125,0 -0.203125,0.1875 -0.203125,0.328125 V -2.6875 h -2.78125 c -0.140625,0 -0.328125,0 -0.328125,0.1875 0,0.203125 0.1875,0.203125 0.328125,0.203125 h 2.78125 V 0.5 c 0,0.140625 0,0.328125 0.203125,0.328125 0.203125,0 0.203125,-0.1875 0.203125,-0.328125 z m 0,0"
   id="id-eb9a1393-3020-4ad5-99b6-ef3d834abe06-0" />
      </g>
    </g><g
       id="id-52d9c11e-b1eb-4eb8-901a-22a3432ecfb6-7">
      <g
   id="id-4f370f14-18d7-4252-98bc-0295d31a0289-6">
        <path
   d="m 6.5625,-2.296875 c 0.171875,0 0.359375,0 0.359375,-0.203125 0,-0.1875 -0.1875,-0.1875 -0.359375,-0.1875 H 1.171875 c -0.171875,0 -0.34375,0 -0.34375,0.1875 0,0.203125 0.171875,0.203125 0.34375,0.203125 z m 0,0"
   id="id-7fd49d5b-09f4-4f7e-b8ee-ac16c488156b-5" />
      </g>
    </g><g
       id="id-5b9fbb48-179e-4891-bc78-9365d3a5b4d9">
      <g
   id="id-d70fa718-648f-4301-8512-5161bd365d7e">
        <path
   d="m 3.96875,-6.9375 c -0.046875,-0.125 -0.078125,-0.203125 -0.234375,-0.203125 -0.15625,0 -0.1875,0.0625 -0.234375,0.203125 L 1.4375,-0.984375 C 1.25,-0.46875 0.859375,-0.3125 0.3125,-0.3125 V 0 c 0.234375,-0.015625 0.671875,-0.03125 1.015625,-0.03125 0.3125,0 0.828125,0.015625 1.15625,0.03125 v -0.3125 c -0.5,0 -0.75,-0.25 -0.75,-0.5 0,-0.03125 0.015625,-0.140625 0.015625,-0.15625 L 2.21875,-2.265625 H 4.671875 L 5.203125,-0.75 c 0.015625,0.046875 0.03125,0.109375 0.03125,0.140625 0,0.296875 -0.5625,0.296875 -0.828125,0.296875 V 0 c 0.359375,-0.03125 1.0625,-0.03125 1.4375,-0.03125 0.421875,0 0.890625,0.015625 1.296875,0.03125 V -0.3125 H 6.96875 C 6.375,-0.3125 6.234375,-0.375 6.125,-0.703125 Z m -0.53125,1.109375 1.125,3.25 H 2.328125 Z m 0,0"
   id="id-fa6d05f9-e8cf-4873-972a-698144f57083" />
      </g>
    </g><g
       id="g49">
      <g
   id="g48">
        <path
   d="m 4.078125,-2.296875 h 2.78125 C 7,-2.296875 7.1875,-2.296875 7.1875,-2.5 7.1875,-2.6875 7,-2.6875 6.859375,-2.6875 h -2.78125 v -2.796875 c 0,-0.140625 0,-0.328125 -0.203125,-0.328125 -0.203125,0 -0.203125,0.1875 -0.203125,0.328125 V -2.6875 h -2.78125 c -0.140625,0 -0.328125,0 -0.328125,0.1875 0,0.203125 0.1875,0.203125 0.328125,0.203125 h 2.78125 V 0.5 c 0,0.140625 0,0.328125 0.203125,0.328125 0.203125,0 0.203125,-0.1875 0.203125,-0.328125 z m 0,0"
   id="path47" />
      </g>
    </g><g
       id="g51">
      <g
   id="g50">
        <path
   d="m 6.5625,-2.296875 c 0.171875,0 0.359375,0 0.359375,-0.203125 0,-0.1875 -0.1875,-0.1875 -0.359375,-0.1875 H 1.171875 c -0.171875,0 -0.34375,0 -0.34375,0.1875 0,0.203125 0.171875,0.203125 0.34375,0.203125 z m 0,0"
   id="path49" />
      </g>
    </g><g
       id="g6">
      <g
   id="g5">
        <path
   d="m 4.078125,-2.296875 h 2.78125 C 7,-2.296875 7.1875,-2.296875 7.1875,-2.5 7.1875,-2.6875 7,-2.6875 6.859375,-2.6875 h -2.78125 v -2.796875 c 0,-0.140625 0,-0.328125 -0.203125,-0.328125 -0.203125,0 -0.203125,0.1875 -0.203125,0.328125 V -2.6875 h -2.78125 c -0.140625,0 -0.328125,0 -0.328125,0.1875 0,0.203125 0.1875,0.203125 0.328125,0.203125 h 2.78125 V 0.5 c 0,0.140625 0,0.328125 0.203125,0.328125 0.203125,0 0.203125,-0.1875 0.203125,-0.328125 z m 0,0"
   id="path1" />
      </g>
    </g><g
       id="g12">
      <g
   id="g11">
        <path
   d="m 6.5625,-2.296875 c 0.171875,0 0.359375,0 0.359375,-0.203125 0,-0.1875 -0.1875,-0.1875 -0.359375,-0.1875 H 1.171875 c -0.171875,0 -0.34375,0 -0.34375,0.1875 0,0.203125 0.171875,0.203125 0.34375,0.203125 z m 0,0"
   id="path10" />
      </g>
    </g><clipPath
       clipPathUnits="userSpaceOnUse"
       id="clipPath7341"><rect
         style="fill:#ffc000;fill-opacity:1;stroke:none;stroke-width:1.46067;stroke-linecap:butt;stroke-linejoin:miter;stroke-dasharray:none;stroke-opacity:1;paint-order:normal"
         id="rect7343"
         width="71.196632"
         height="44.003433"
         x="88.776237"
         y="76.479538" /></clipPath><clipPath
       clipPathUnits="userSpaceOnUse"
       id="clipPath7349"><rect
         style="fill:#ffc000;fill-opacity:1;stroke:none;stroke-width:1.46067;stroke-linecap:butt;stroke-linejoin:miter;stroke-dasharray:none;stroke-opacity:1;paint-order:normal"
         id="rect7351"
         width="71.196632"
         height="44.003433"
         x="88.776237"
         y="76.479538" /></clipPath><clipPath
       clipPathUnits="userSpaceOnUse"
       id="clipPath7353"><rect
         style="fill:#ffc000;fill-opacity:1;stroke:none;stroke-width:1.46067;stroke-linecap:butt;stroke-linejoin:miter;stroke-dasharray:none;stroke-opacity:1;paint-order:normal"
         id="rect7355"
         width="71.196632"
         height="44.003433"
         x="88.776237"
         y="76.479538" /></clipPath><clipPath
       clipPathUnits="userSpaceOnUse"
       id="clipPath7357"><rect
         style="fill:#ffc000;fill-opacity:1;stroke:none;stroke-width:1.46067;stroke-linecap:butt;stroke-linejoin:miter;stroke-dasharray:none;stroke-opacity:1;paint-order:normal"
         id="rect7359"
         width="71.196632"
         height="44.003433"
         x="88.776237"
         y="76.479538" /></clipPath><clipPath
       clipPathUnits="userSpaceOnUse"
       id="clipPath7361"><rect
         style="fill:#ffc000;fill-opacity:1;stroke:none;stroke-width:1.46067;stroke-linecap:butt;stroke-linejoin:miter;stroke-dasharray:none;stroke-opacity:1;paint-order:normal"
         id="rect7363"
         width="71.196632"
         height="44.003433"
         x="88.776237"
         y="76.479538" /></clipPath><clipPath
       clipPathUnits="userSpaceOnUse"
       id="clipPath7365"><rect
         style="fill:#ffc000;fill-opacity:1;stroke:none;stroke-width:1.46067;stroke-linecap:butt;stroke-linejoin:miter;stroke-dasharray:none;stroke-opacity:1;paint-order:normal"
         id="rect7367"
         width="71.196632"
         height="44.003433"
         x="88.776237"
         y="76.479538" /></clipPath><clipPath
       clipPathUnits="userSpaceOnUse"
       id="clipPath7369"><rect
         style="fill:#ffc000;fill-opacity:1;stroke:none;stroke-width:1.46067;stroke-linecap:butt;stroke-linejoin:miter;stroke-dasharray:none;stroke-opacity:1;paint-order:normal"
         id="rect7371"
         width="71.196632"
         height="44.003433"
         x="88.776237"
         y="76.479538" /></clipPath><clipPath
       clipPathUnits="userSpaceOnUse"
       id="clipPath7373"><rect
         style="fill:#ffc000;fill-opacity:1;stroke:none;stroke-width:1.46067;stroke-linecap:butt;stroke-linejoin:miter;stroke-dasharray:none;stroke-opacity:1;paint-order:normal"
         id="rect7375"
         width="71.196632"
         height="44.003433"
         x="88.776237"
         y="76.479538" /></clipPath><clipPath
       clipPathUnits="userSpaceOnUse"
       id="clipPath7377"><rect
         style="fill:#ffc000;fill-opacity:1;stroke:none;stroke-width:1.46067;stroke-linecap:butt;stroke-linejoin:miter;stroke-dasharray:none;stroke-opacity:1;paint-order:normal"
         id="rect7379"
         width="71.196632"
         height="44.003433"
         x="88.776237"
         y="76.479538" /></clipPath><clipPath
       clipPathUnits="userSpaceOnUse"
       id="clipPath7381"><rect
         style="fill:#ffc000;fill-opacity:1;stroke:none;stroke-width:1.46067;stroke-linecap:butt;stroke-linejoin:miter;stroke-dasharray:none;stroke-opacity:1;paint-order:normal"
         id="rect7383"
         width="71.196632"
         height="44.003433"
         x="88.776237"
         y="76.479538" /></clipPath><clipPath
       clipPathUnits="userSpaceOnUse"
       id="clipPath7486"><g
         id="g7490"><rect
           style="fill:#ffc000;fill-opacity:1;stroke:none;stroke-width:1.46067;stroke-linecap:butt;stroke-linejoin:miter;stroke-dasharray:none;stroke-opacity:1;paint-order:normal"
           id="rect7488"
           width="71.196632"
           height="44.003433"
           x="88.776237"
           y="76.479538" /></g></clipPath><clipPath
       clipPathUnits="userSpaceOnUse"
       id="clipPath7492"><g
         id="g7496"
         transform="matrix(208.8786,0,0,-208.8786,-29893.806,19321.263)"><rect
           style="fill:#ffc000;fill-opacity:1;stroke:none;stroke-width:1.46067;stroke-linecap:butt;stroke-linejoin:miter;stroke-dasharray:none;stroke-opacity:1;paint-order:normal"
           id="rect7494"
           width="71.196632"
           height="44.003433"
           x="88.776237"
           y="76.479538" /></g></clipPath><clipPath
       clipPathUnits="userSpaceOnUse"
       id="clipPath7498"><g
         id="g7502"
         transform="matrix(208.8014,0,0,-208.8014,-30774.185,21088.056)"><rect
           style="fill:#ffc000;fill-opacity:1;stroke:none;stroke-width:1.46067;stroke-linecap:butt;stroke-linejoin:miter;stroke-dasharray:none;stroke-opacity:1;paint-order:normal"
           id="rect7500"
           width="71.196632"
           height="44.003433"
           x="88.776237"
           y="76.479538" /></g></clipPath><clipPath
       clipPathUnits="userSpaceOnUse"
       id="clipPath7504"><g
         id="g7508"
         transform="matrix(208.86071,0,0,-208.86071,-30436.394,22730.026)"><rect
           style="fill:#ffc000;fill-opacity:1;stroke:none;stroke-width:1.46067;stroke-linecap:butt;stroke-linejoin:miter;stroke-dasharray:none;stroke-opacity:1;paint-order:normal"
           id="rect7506"
           width="71.196632"
           height="44.003433"
           x="88.776237"
           y="76.479538" /></g></clipPath><clipPath
       clipPathUnits="userSpaceOnUse"
       id="clipPath7510"><g
         id="g7514"
         transform="matrix(208.82015,0,0,-208.82015,-30447.758,24039.41)"><rect
           style="fill:#ffc000;fill-opacity:1;stroke:none;stroke-width:1.46067;stroke-linecap:butt;stroke-linejoin:miter;stroke-dasharray:none;stroke-opacity:1;paint-order:normal"
           id="rect7512"
           width="71.196632"
           height="44.003433"
           x="88.776237"
           y="76.479538" /></g></clipPath><clipPath
       clipPathUnits="userSpaceOnUse"
       id="clipPath7516"><g
         id="g7520"
         transform="matrix(208.83672,0,0,-208.83672,-14470.457,16600.396)"><rect
           style="fill:#ffc000;fill-opacity:1;stroke:none;stroke-width:1.46067;stroke-linecap:butt;stroke-linejoin:miter;stroke-dasharray:none;stroke-opacity:1;paint-order:normal"
           id="rect7518"
           width="71.196632"
           height="44.003433"
           x="88.776237"
           y="76.479538" /></g></clipPath><clipPath
       clipPathUnits="userSpaceOnUse"
       id="clipPath7522"><g
         id="g7526"
         transform="matrix(208.8184,0,0,-208.8184,-33989.572,16996.699)"><rect
           style="fill:#ffc000;fill-opacity:1;stroke:none;stroke-width:1.46067;stroke-linecap:butt;stroke-linejoin:miter;stroke-dasharray:none;stroke-opacity:1;paint-order:normal"
           id="rect7524"
           width="71.196632"
           height="44.003433"
           x="88.776237"
           y="76.479538" /></g></clipPath><clipPath
       clipPathUnits="userSpaceOnUse"
       id="clipPath7528"><g
         id="g7532"
         transform="matrix(208.81273,0,0,-208.81273,-13684.892,21673.711)"><rect
           style="fill:#ffc000;fill-opacity:1;stroke:none;stroke-width:1.46067;stroke-linecap:butt;stroke-linejoin:miter;stroke-dasharray:none;stroke-opacity:1;paint-order:normal"
           id="rect7530"
           width="71.196632"
           height="44.003433"
           x="88.776237"
           y="76.479538" /></g></clipPath><clipPath
       clipPathUnits="userSpaceOnUse"
       id="clipPath7534"><g
         id="g7538"
         transform="matrix(208.79791,0,0,-208.79791,-26948.122,17182.428)"><rect
           style="fill:#ffc000;fill-opacity:1;stroke:none;stroke-width:1.46067;stroke-linecap:butt;stroke-linejoin:miter;stroke-dasharray:none;stroke-opacity:1;paint-order:normal"
           id="rect7536"
           width="71.196632"
           height="44.003433"
           x="88.776237"
           y="76.479538" /></g></clipPath><clipPath
       clipPathUnits="userSpaceOnUse"
       id="clipPath7377-9"><rect
         style="fill:#ffc000;fill-opacity:1;stroke:none;stroke-width:1.46067;stroke-linecap:butt;stroke-linejoin:miter;stroke-dasharray:none;stroke-opacity:1;paint-order:normal"
         id="rect7379-2"
         width="71.196632"
         height="44.003433"
         x="88.776237"
         y="76.479538" /></clipPath><clipPath
       clipPathUnits="userSpaceOnUse"
       id="clipPath7486-6"><g
         id="g7490-3"><rect
           style="fill:#ffc000;fill-opacity:1;stroke:none;stroke-width:1.46067;stroke-linecap:butt;stroke-linejoin:miter;stroke-dasharray:none;stroke-opacity:1;paint-order:normal"
           id="rect7488-2"
           width="71.196632"
           height="44.003433"
           x="88.776237"
           y="76.479538" /></g></clipPath><clipPath
       clipPathUnits="userSpaceOnUse"
       id="clipPath7486-5"><g
         id="g7490-5"><rect
           style="fill:#ffc000;fill-opacity:1;stroke:none;stroke-width:1.46067;stroke-linecap:butt;stroke-linejoin:miter;stroke-dasharray:none;stroke-opacity:1;paint-order:normal"
           id="rect7488-4"
           width="71.196632"
           height="44.003433"
           x="88.776237"
           y="76.479538" /></g></clipPath></defs><g
     inkscape:label="Layer 1"
     inkscape:groupmode="layer"
     id="layer1"
     transform="translate(-67.347507,-131.72027)"><g
       id="g606"
       transform="translate(-6.0132344,51.538028)"><text
         xml:space="preserve"
         style="font-weight:500;font-size:3.52778px;font-family:'CMU Serif';-inkscape-font-specification:'CMU Serif Medium';text-align:center;text-anchor:middle;fill:#000000;fill-opacity:0.9;fill-rule:nonzero;stroke:#000000;stroke-width:0.1;stroke-linecap:square;stroke-linejoin:round;stroke-miterlimit:1.6;stroke-dasharray:none;stroke-opacity:1;paint-order:normal"
         x="169.47614"
         y="99.97963"
         id="text15720"><tspan
           sodipodi:role="line"
           id="tspan15718"
           style="font-size:3.52778px;stroke-width:0.1;stroke-dasharray:none"
           x="169.47614"
           y="99.97963">55nm</tspan></text><text
         xml:space="preserve"
         style="font-weight:500;font-size:3.52778px;font-family:'CMU Serif';-inkscape-font-specification:'CMU Serif Medium';text-align:center;text-anchor:middle;fill:#000000;fill-opacity:0.9;fill-rule:nonzero;stroke:#000000;stroke-width:0.1;stroke-linecap:square;stroke-linejoin:round;stroke-miterlimit:1.6;stroke-dasharray:none;stroke-opacity:1;paint-order:normal"
         x="170.35808"
         y="109.66296"
         id="text15720-2"><tspan
           sodipodi:role="line"
           id="tspan15718-7"
           style="font-size:3.52778px;stroke-width:0.1;stroke-dasharray:none"
           x="170.35808"
           y="109.66296">285nm</tspan></text><text
         xml:space="preserve"
         style="font-weight:500;font-size:3.52778px;font-family:'CMU Serif';-inkscape-font-specification:'CMU Serif Medium';text-align:center;text-anchor:middle;fill:#000000;fill-opacity:0.9;fill-rule:nonzero;stroke:#000000;stroke-width:0.1;stroke-linecap:square;stroke-linejoin:round;stroke-miterlimit:1.6;stroke-dasharray:none;stroke-opacity:1;paint-order:normal"
         x="168.59419"
         y="104.49249"
         id="text15720-7"><tspan
           sodipodi:role="line"
           id="tspan15718-5"
           style="font-size:3.52778px;stroke-width:0.1;stroke-dasharray:none"
           x="168.59419"
           y="104.49249">5nm</tspan></text><text
         xml:space="preserve"
         style="font-weight:500;font-size:3.52778px;font-family:'CMU Serif';-inkscape-font-specification:'CMU Serif Medium';text-align:center;text-anchor:middle;fill:#000000;fill-opacity:0.9;fill-rule:nonzero;stroke:#000000;stroke-width:0.1;stroke-linecap:square;stroke-linejoin:round;stroke-miterlimit:1.6;stroke-dasharray:none;stroke-opacity:1;paint-order:normal"
         x="169.1618"
         y="92.239738"
         id="text15720-26"><tspan
           sodipodi:role="line"
           id="tspan15718-1"
           style="font-size:3.52778px;stroke-width:0.1;stroke-dasharray:none"
           x="169.1618"
           y="92.239738">41.75nm</tspan></text><g
         id="g54"
         inkscape:label="sio2"
         clip-path="url(#clipPath7381)"
         transform="matrix(0.99689437,0,0,1.4107757,0.49681685,-43.131447)"><rect
           style="fill:#bbbad5;fill-opacity:1;stroke:none;stroke-width:0.2533;stroke-dasharray:none;stroke-opacity:1;paint-order:normal"
           id="rect1"
           width="75.000008"
           height="5.0000033"
           x="85"
           y="105" /><rect
           style="fill:#bbbad5;fill-opacity:1;stroke:none;stroke-width:0.251553;stroke-dasharray:none;stroke-opacity:1;paint-order:normal"
           id="rect1-6"
           width="5.0000019"
           height="5.0000029"
           x="70"
           y="105" /></g><rect
         style="fill:#ffc000;fill-opacity:1;stroke:none;stroke-width:0.278663;stroke-linecap:butt;stroke-linejoin:miter;stroke-dasharray:none;stroke-opacity:1;paint-order:normal"
         id="rect1-29-1-5"
         width="20.00001"
         height="5.7013202"
         x="140"
         y="96"
         clip-path="url(#clipPath7377)" /><g
         id="g17717-4"
         transform="matrix(-1,0,0,1,248.96837,0.07672991)"><text
           xml:space="preserve"
           style="font-weight:500;font-size:3.52778px;font-family:'CMU Serif';-inkscape-font-specification:'CMU Serif Medium';text-align:center;text-anchor:middle;fill:#000000;fill-opacity:0.9;fill-rule:nonzero;stroke:#000000;stroke-width:0.1;stroke-linecap:square;stroke-linejoin:round;stroke-miterlimit:1.6;stroke-dasharray:none;stroke-opacity:1;paint-order:normal"
           x="169.1618"
           y="92.239738"
           id="text15720-26-0"><tspan
             sodipodi:role="line"
             id="tspan15718-1-3"
             style="font-size:3.52778px;fill:#ffffff;stroke:#ffffff;stroke-width:0.1;stroke-dasharray:none"
             x="169.1618"
             y="92.239738">41.75nm</tspan></text></g><rect
         style="fill:#ffc000;fill-opacity:1;stroke:none;stroke-width:0.278663;stroke-linecap:butt;stroke-linejoin:miter;stroke-dasharray:none;stroke-opacity:1;paint-order:normal"
         id="rect1-29-1-5-6"
         width="20.00001"
         height="5.7013202"
         x="140"
         y="96"
         clip-path="url(#clipPath7377-9)"
         transform="matrix(-1.0513715,0,0,1,257.18641,0.07672991)" /><rect
         style="fill:#403e68;fill-opacity:1;stroke:none;stroke-width:0.212195;stroke-dasharray:none;stroke-opacity:1"
         id="rect1-29-3"
         width="20.00094"
         height="3.305711"
         x="139.99907"
         y="101.69429"
         clip-path="url(#clipPath7369)" /><rect
         style="fill:#1f407a;fill-opacity:1;stroke:none;stroke-width:0.401304;stroke-opacity:1"
         id="rect1-2"
         width="89.999992"
         height="10.482979"
         x="70"
         y="110"
         inkscape:label="si++"
         clip-path="url(#clipPath7365)"
         transform="matrix(0.99698237,0,0,1.0764014,0.4827382,-6.358539)" /><path
         style="fill:none;fill-opacity:1;stroke:#bbbad5;stroke-width:4.727;stroke-linecap:square;stroke-linejoin:miter;stroke-miterlimit:1.6;stroke-dasharray:none;stroke-dashoffset:0;stroke-opacity:1;paint-order:normal"
         d="m 96.090919,91.159131 5.830231,-0.02426 2.53859,0.01335 2.52762,-0.01335 h 5.22589 c 0.89566,0 2.35391,0.340023 2.35391,2.068787 v 3.094777 3.094781 c -0.0485,0.992174 0.2483,1.099754 1.68872,1.031614 l 0.86387,-0.006 h 2.53309 2.53309 2.53312 2.53309 2.53309 1.47476 2.53312 c 1.78311,0.0894 1.68873,-1.031604 1.68873,-1.031604 v -3.094381 -3.094777 c 0.009,-2.237914 1.7535,-2.114948 3.32822,-2.123365 h 1.50066 2.09074 2.53311 2.53311 6.00943"
         id="path11-0"
         sodipodi:nodetypes="cccccccccccccccccccccccccc"
         inkscape:label="al2o3"
         clip-path="url(#clipPath7361)" /><g
         id="g52"
         style="display:inline"
         inkscape:label="graphene"
         clip-path="url(#clipPath7357)"><ellipse
           style="fill:#000000;fill-opacity:1;stroke:#000000;stroke-width:0.3;stroke-linecap:round;stroke-linejoin:miter;stroke-miterlimit:1.6;stroke-dasharray:none;stroke-dashoffset:0;stroke-opacity:1;paint-order:normal"
           id="path22"
           cx="113"
           cy="104"
           rx="0.41109437"
           ry="0.50633389" /><ellipse
           style="fill:#000000;fill-opacity:1;stroke:#000000;stroke-width:0.3;stroke-linecap:round;stroke-linejoin:miter;stroke-miterlimit:1.6;stroke-dasharray:none;stroke-dashoffset:0;stroke-opacity:1;paint-order:normal"
           id="path23"
           cx="116"
           cy="104"
           rx="0.52709883"
           ry="0.47264785" /><ellipse
           style="fill:#000000;fill-opacity:1;stroke:#000000;stroke-width:0.3;stroke-linecap:round;stroke-linejoin:miter;stroke-miterlimit:1.6;stroke-dasharray:none;stroke-dashoffset:0;stroke-opacity:1;paint-order:normal"
           id="path24"
           cx="119"
           cy="104"
           rx="0.52498275"
           ry="0.47875994" /><ellipse
           style="fill:#000000;fill-opacity:1;stroke:#000000;stroke-width:0.310988;stroke-linecap:round;stroke-linejoin:miter;stroke-miterlimit:1.6;stroke-dasharray:none;stroke-dashoffset:0;stroke-opacity:1;paint-order:normal"
           id="path25"
           cx="122"
           cy="104.0409"
           rx="0.46856612"
           ry="0.44149947" /><ellipse
           style="fill:#000000;fill-opacity:1;stroke:#000000;stroke-width:0.320438;stroke-linecap:round;stroke-linejoin:miter;stroke-miterlimit:1.6;stroke-dasharray:none;stroke-dashoffset:0;stroke-opacity:1;paint-order:normal"
           id="path26"
           cx="125"
           cy="104.07579"
           rx="0.48666784"
           ry="0.46333179" /><ellipse
           style="fill:#000000;fill-opacity:1;stroke:#000000;stroke-width:0.3;stroke-linecap:round;stroke-linejoin:miter;stroke-miterlimit:1.6;stroke-dasharray:none;stroke-dashoffset:0;stroke-opacity:1;paint-order:normal"
           id="path27"
           cx="128"
           cy="104"
           rx="0.52872682"
           ry="0.54776138" /><ellipse
           style="fill:#000000;fill-opacity:1;stroke:#000000;stroke-width:0.3;stroke-linecap:round;stroke-linejoin:miter;stroke-miterlimit:1.6;stroke-dasharray:none;stroke-dashoffset:0;stroke-opacity:1;paint-order:normal"
           id="path28"
           cx="131"
           cy="104"
           rx="0.49219236"
           ry="0.46694627" /><ellipse
           style="fill:#000000;fill-opacity:1;stroke:#000000;stroke-width:0.3;stroke-linecap:round;stroke-linejoin:miter;stroke-miterlimit:1.6;stroke-dasharray:none;stroke-dashoffset:0;stroke-opacity:1;paint-order:normal"
           id="path29"
           cx="134"
           cy="104"
           rx="0.46570367"
           ry="0.40934068" /><ellipse
           style="fill:#000000;fill-opacity:1;stroke:#000000;stroke-width:0.3;stroke-linecap:round;stroke-linejoin:miter;stroke-miterlimit:1.6;stroke-dasharray:none;stroke-dashoffset:0;stroke-opacity:1;paint-order:normal"
           id="path30"
           cx="137"
           cy="104"
           rx="0.48138773"
           ry="0.48085323" /><ellipse
           style="fill:#000000;fill-opacity:1;stroke:#000000;stroke-width:0.3;stroke-linecap:round;stroke-linejoin:miter;stroke-miterlimit:1.6;stroke-dasharray:none;stroke-dashoffset:0;stroke-opacity:1;paint-order:normal"
           id="path31"
           cx="139.00002"
           cy="102.99999"
           rx="0.44015145"
           ry="0.53800964" /><ellipse
           style="fill:#000000;fill-opacity:1;stroke:#000000;stroke-width:0.3;stroke-linecap:round;stroke-linejoin:miter;stroke-miterlimit:1.6;stroke-dasharray:none;stroke-dashoffset:0;stroke-opacity:1;paint-order:normal"
           id="path32"
           cx="139.00002"
           cy="100"
           rx="0.44962478"
           ry="0.4437176" /><ellipse
           style="fill:#000000;fill-opacity:1;stroke:#000000;stroke-width:0.319272;stroke-linecap:round;stroke-linejoin:miter;stroke-miterlimit:1.6;stroke-dasharray:none;stroke-dashoffset:0;stroke-opacity:1;paint-order:normal"
           id="path33"
           cx="138.99722"
           cy="97"
           rx="0.45833939"
           ry="0.41969872" /><ellipse
           style="fill:#000000;fill-opacity:1;stroke:#000000;stroke-width:0.3;stroke-linecap:round;stroke-linejoin:miter;stroke-miterlimit:1.6;stroke-dasharray:none;stroke-dashoffset:0;stroke-opacity:1;paint-order:normal"
           id="path34"
           cx="140"
           cy="95"
           rx="0.54645109"
           ry="0.47385848" /><ellipse
           style="fill:#000000;fill-opacity:1;stroke:#000000;stroke-width:0.3;stroke-linecap:round;stroke-linejoin:miter;stroke-miterlimit:1.6;stroke-dasharray:none;stroke-dashoffset:0;stroke-opacity:1;paint-order:normal"
           id="path35"
           cx="143"
           cy="95"
           rx="0.56562734"
           ry="0.48251075" /><ellipse
           style="fill:#000000;fill-opacity:1;stroke:#000000;stroke-width:0.3;stroke-linecap:round;stroke-linejoin:miter;stroke-miterlimit:1.6;stroke-dasharray:none;stroke-dashoffset:0;stroke-opacity:1;paint-order:normal"
           id="path36"
           cx="146"
           cy="95"
           rx="0.52076519"
           ry="0.49450102" /><ellipse
           style="fill:#000000;fill-opacity:1;stroke:#000000;stroke-width:0.3;stroke-linecap:round;stroke-linejoin:miter;stroke-miterlimit:1.6;stroke-dasharray:none;stroke-dashoffset:0;stroke-opacity:1;paint-order:normal"
           id="path37"
           cx="148.94167"
           cy="94.94165"
           rx="0.5211792"
           ry="0.46821812" /><ellipse
           style="fill:#000000;fill-opacity:1;stroke:#000000;stroke-width:0.3;stroke-linecap:round;stroke-linejoin:miter;stroke-miterlimit:1.6;stroke-dasharray:none;stroke-dashoffset:0;stroke-opacity:1;paint-order:normal"
           id="path38"
           cx="151.94167"
           cy="94.94165"
           rx="0.4600966"
           ry="0.52879488" /><ellipse
           style="fill:#000000;fill-opacity:1;stroke:#000000;stroke-width:0.3;stroke-linecap:round;stroke-linejoin:miter;stroke-miterlimit:1.6;stroke-dasharray:none;stroke-dashoffset:0;stroke-opacity:1;paint-order:normal"
           id="path39"
           cx="154.94167"
           cy="94.94165"
           rx="0.44698429"
           ry="0.43015417" /><ellipse
           style="fill:#000000;fill-opacity:1;stroke:#000000;stroke-width:0.3;stroke-linecap:round;stroke-linejoin:miter;stroke-miterlimit:1.6;stroke-dasharray:none;stroke-dashoffset:0;stroke-opacity:1;paint-order:normal"
           id="path13"
           cx="95"
           cy="95"
           rx="0.51139396"
           ry="0.39941588" /><ellipse
           style="fill:#000000;fill-opacity:1;stroke:#000000;stroke-width:0.3;stroke-linecap:round;stroke-linejoin:miter;stroke-miterlimit:1.6;stroke-dasharray:none;stroke-dashoffset:0;stroke-opacity:1;paint-order:normal"
           id="path14"
           cx="98"
           cy="95"
           rx="0.44944736"
           ry="0.46953005" /><circle
           style="fill:#000000;fill-opacity:1;stroke:#000000;stroke-width:0.3;stroke-linecap:round;stroke-linejoin:miter;stroke-miterlimit:1.6;stroke-dasharray:none;stroke-dashoffset:0;stroke-opacity:1;paint-order:normal"
           id="path15"
           cx="101.00651"
           cy="95.012924"
           r="0.47523212" /><ellipse
           style="fill:#000000;fill-opacity:1;stroke:#000000;stroke-width:0.3;stroke-linecap:round;stroke-linejoin:miter;stroke-miterlimit:1.6;stroke-dasharray:none;stroke-dashoffset:0;stroke-opacity:1;paint-order:normal"
           id="path16"
           cx="104"
           cy="95"
           rx="0.45143068"
           ry="0.4715232" /><ellipse
           style="fill:#000000;fill-opacity:1;stroke:#000000;stroke-width:0.3;stroke-linecap:round;stroke-linejoin:miter;stroke-miterlimit:1.6;stroke-dasharray:none;stroke-dashoffset:0;stroke-opacity:1;paint-order:normal"
           id="path17"
           cx="107"
           cy="95"
           rx="0.45854029"
           ry="0.45975822" /><ellipse
           style="fill:#000000;fill-opacity:1;stroke:#000000;stroke-width:0.3;stroke-linecap:round;stroke-linejoin:miter;stroke-miterlimit:1.6;stroke-dasharray:none;stroke-dashoffset:0;stroke-opacity:1;paint-order:normal"
           id="path18"
           cx="109.99999"
           cy="94.999985"
           rx="0.45116931"
           ry="0.46135944" /><ellipse
           style="fill:#000000;fill-opacity:1;stroke:#000000;stroke-width:0.3;stroke-linecap:round;stroke-linejoin:miter;stroke-miterlimit:1.6;stroke-dasharray:none;stroke-dashoffset:0;stroke-opacity:1;paint-order:normal"
           id="path19"
           cx="111"
           cy="97"
           rx="0.47901502"
           ry="0.45138717" /><ellipse
           style="fill:#000000;fill-opacity:1;stroke:#000000;stroke-width:0.3;stroke-linecap:round;stroke-linejoin:miter;stroke-miterlimit:1.6;stroke-dasharray:none;stroke-dashoffset:0;stroke-opacity:1;paint-order:normal"
           id="path20"
           cx="111"
           cy="100"
           rx="0.45777521"
           ry="0.52917242" /><ellipse
           style="fill:#000000;fill-opacity:1;stroke:#000000;stroke-width:0.3;stroke-linecap:round;stroke-linejoin:miter;stroke-miterlimit:1.6;stroke-dasharray:none;stroke-dashoffset:0;stroke-opacity:1;paint-order:normal"
           id="path21"
           cx="111"
           cy="102.99999"
           rx="0.453522"
           ry="0.48950014" /><path
           style="fill:none;stroke:#000000;stroke-width:0.3;stroke-linecap:round;stroke-linejoin:miter;stroke-miterlimit:1.6;stroke-dasharray:none;stroke-dashoffset:0;stroke-opacity:1;marker-start:url(#marker12);marker-mid:url(#marker12);marker-end:url(#marker12);paint-order:normal"
           d="m 95.000005,94.999983 h 2.999999 l 3.006506,0.01294 L 104,94.999985 h 3 3 c 1.07328,-0.01673 0.98707,0.324724 1,2 V 99.99998 103 c -0.0575,0.96178 0.29406,1.06607 2,1 h 3 3 3 3 3 3 3 3 c 2.11178,0.0868 2,-1 2,-1 v -3.00002 -2.999995 c 0,-1.221058 0,-1.999988 0.94167,-2.058334 h 3 3 3 3 3"
           id="path11"
           sodipodi:nodetypes="ccccccccccccccccccccccccccc" /></g><rect
         style="fill:#403e68;fill-opacity:1;stroke:none;stroke-width:0.173402;stroke-dasharray:none;stroke-opacity:1"
         id="rect1-29-3-8"
         width="21"
         height="2.1024938"
         x="89"
         y="102.89751"
         clip-path="url(#clipPath7353)"
         transform="matrix(1,0,0,1.5329878,0,-55.963715)" /><g
         id="layer3"
         inkscape:label="circuit"
         style="display:none"><g
           id="g56"
           inkscape:label="groundsource"
           transform="translate(0,8.9958336)"><path
             style="fill:none;fill-opacity:1;stroke:#000000;stroke-width:0.3;stroke-linecap:butt;stroke-linejoin:miter;stroke-miterlimit:1.6;stroke-dasharray:none;stroke-dashoffset:0;stroke-opacity:1;paint-order:normal"
             d="M 182,96.327104 V 102"
             id="path42" /><path
             style="fill:none;fill-opacity:1;stroke:#000000;stroke-width:0.3;stroke-linecap:butt;stroke-linejoin:miter;stroke-miterlimit:1.6;stroke-dasharray:none;stroke-dashoffset:0;stroke-opacity:1;paint-order:normal"
             d="M 178.98862,102 H 185"
             id="path43" /><path
             style="fill:none;fill-opacity:1;stroke:#000000;stroke-width:0.3;stroke-linecap:butt;stroke-linejoin:miter;stroke-miterlimit:1.6;stroke-dasharray:none;stroke-dashoffset:0;stroke-opacity:1;paint-order:normal"
             d="m 180,103 h 4"
             id="path44" /><path
             style="fill:none;fill-opacity:1;stroke:#000000;stroke-width:0.3;stroke-linecap:butt;stroke-linejoin:miter;stroke-miterlimit:1.6;stroke-dasharray:none;stroke-dashoffset:0;stroke-opacity:1;paint-order:normal"
             d="m 181,104 h 2"
             id="path45" /><path
             style="fill:none;fill-opacity:1;stroke:#000000;stroke-width:0.3;stroke-linecap:butt;stroke-linejoin:miter;stroke-miterlimit:1.6;stroke-dasharray:none;stroke-dashoffset:0;stroke-opacity:1;paint-order:normal"
             d="m 182,87.331272 v 2.72706"
             id="path42-3"
             sodipodi:nodetypes="cc" /></g><g
           id="g56-4"
           inkscape:label="drain_dround"
           transform="translate(-122,-3.1635547)"
           style="display:inline"><g
             id="g57"><path
               style="fill:none;fill-opacity:1;stroke:#000000;stroke-width:0.3;stroke-linecap:butt;stroke-linejoin:miter;stroke-miterlimit:1.6;stroke-dasharray:none;stroke-dashoffset:0;stroke-opacity:1;paint-order:normal"
               d="m 175.99412,92.449151 h 6.01138"
               id="path43-0" /><path
               style="fill:none;fill-opacity:1;stroke:#000000;stroke-width:0.3;stroke-linecap:butt;stroke-linejoin:miter;stroke-miterlimit:1.6;stroke-dasharray:none;stroke-dashoffset:0;stroke-opacity:1;paint-order:normal"
               d="m 177.0055,93.449151 h 4"
               id="path44-7" /><path
               style="fill:none;fill-opacity:1;stroke:#000000;stroke-width:0.3;stroke-linecap:butt;stroke-linejoin:miter;stroke-miterlimit:1.6;stroke-dasharray:none;stroke-dashoffset:0;stroke-opacity:1;paint-order:normal"
               d="m 178.0055,94.449151 h 2"
               id="path45-8" /></g></g><g
           id="g47"
           inkscape:label="vsource"
           style="display:inline"><ellipse
             style="fill:none;fill-opacity:1;stroke:#000000;stroke-width:0.3;stroke-linecap:square;stroke-linejoin:miter;stroke-miterlimit:1.6;stroke-dasharray:none;stroke-dashoffset:0;stroke-opacity:1;paint-order:normal"
             id="path40"
             cy="93.192719"
             cx="182"
             rx="2.9999959"
             ry="3.1343868" /><g
             transform="matrix(0.529167,0,0,0.529167,180.19366,90.977862)"
             ns1:version="1.10.2"
             ns1:texconverter="pdflatex"
             ns1:pdfconverter="inkscape"
             ns1:text="$\\rm A$"
             ns1:preamble="/usr/share/inkscape/extensions/textext/default_packages.tex"
             ns1:scale="1.5"
             ns1:alignment="middle center"
             ns1:stroke-to-path="0"
             ns1:inkscapeversion="1.3.2"
             id="g5605"
             ns1:jacobian_sqrt="0.529167"><defs
   id="id-df7124be-1aed-4abb-aa59-b86916df9504">
    <g
   id="g484">
      <g
   id="g482">
        <path
   d="m 3.96875,-6.9375 c -0.046875,-0.125 -0.078125,-0.203125 -0.234375,-0.203125 -0.15625,0 -0.1875,0.0625 -0.234375,0.203125 L 1.4375,-0.984375 C 1.25,-0.46875 0.859375,-0.3125 0.3125,-0.3125 V 0 c 0.234375,-0.015625 0.671875,-0.03125 1.015625,-0.03125 0.3125,0 0.828125,0.015625 1.15625,0.03125 v -0.3125 c -0.5,0 -0.75,-0.25 -0.75,-0.5 0,-0.03125 0.015625,-0.140625 0.015625,-0.15625 L 2.21875,-2.265625 H 4.671875 L 5.203125,-0.75 c 0.015625,0.046875 0.03125,0.109375 0.03125,0.140625 0,0.296875 -0.5625,0.296875 -0.828125,0.296875 V 0 c 0.359375,-0.03125 1.0625,-0.03125 1.4375,-0.03125 0.421875,0 0.890625,0.015625 1.296875,0.03125 V -0.3125 H 6.96875 C 6.375,-0.3125 6.234375,-0.375 6.125,-0.703125 Z m -0.53125,1.109375 1.125,3.25 H 2.328125 Z m 0,0"
   id="path480" />
      </g>
    </g>
  </defs>
  <g
   fill="#000000"
   fill-opacity="1"
   id="id-625ae3a4-cd8a-4144-b29e-a5c38e90027a"
   transform="translate(-149.025,-127.624)">
    <g
   transform="translate(148.712,134.765)"
   id="g4909"><path
   d="m 3.96875,-6.9375 c -0.046875,-0.125 -0.078125,-0.203125 -0.234375,-0.203125 -0.15625,0 -0.1875,0.0625 -0.234375,0.203125 L 1.4375,-0.984375 C 1.25,-0.46875 0.859375,-0.3125 0.3125,-0.3125 V 0 c 0.234375,-0.015625 0.671875,-0.03125 1.015625,-0.03125 0.3125,0 0.828125,0.015625 1.15625,0.03125 v -0.3125 c -0.5,0 -0.75,-0.25 -0.75,-0.5 0,-0.03125 0.015625,-0.140625 0.015625,-0.15625 L 2.21875,-2.265625 H 4.671875 L 5.203125,-0.75 c 0.015625,0.046875 0.03125,0.109375 0.03125,0.140625 0,0.296875 -0.5625,0.296875 -0.828125,0.296875 V 0 c 0.359375,-0.03125 1.0625,-0.03125 1.4375,-0.03125 0.421875,0 0.890625,0.015625 1.296875,0.03125 V -0.3125 H 6.96875 C 6.375,-0.3125 6.234375,-0.375 6.125,-0.703125 Z m -0.53125,1.109375 1.125,3.25 H 2.328125 Z m 0,0"
   id="id-12d4f58f-158f-48a9-880f-d639759f86f9" />
      </g></g>
</g></g><g
           id="g47-6"
           transform="rotate(179.76843,130.47607,93.893956)"
           inkscape:label="vgate"
           style="display:inline"><ellipse
             style="fill:none;fill-opacity:1;stroke:#000000;stroke-width:0.3;stroke-linecap:square;stroke-linejoin:miter;stroke-miterlimit:1.6;stroke-dasharray:none;stroke-dashoffset:0;stroke-opacity:1;paint-order:normal"
             id="path40-1"
             cy="93.192719"
             cx="182"
             rx="2.9999959"
             ry="3.1343868" /><g
             transform="matrix(0.352778,0,0,0.352778,180.8316,90.813065)"
             ns1:version="1.10.2"
             ns1:texconverter="pdflatex"
             ns1:pdfconverter="inkscape"
             ns1:text="$+$"
             ns1:preamble="/usr/share/inkscape/extensions/textext/default_packages.tex"
             ns1:scale="1.0"
             ns1:alignment="middle center"
             ns1:stroke-to-path="0"
             ns1:inkscapeversion="1.3.2"
             id="g4331-0"
             ns1:jacobian_sqrt="0.352778"><defs
   id="id-08b4503a-292c-4557-b783-466fe2220c3f-6">
    <g
   id="g497">
      <g
   id="g495">
        <path
   d="m 4.078125,-2.296875 h 2.78125 C 7,-2.296875 7.1875,-2.296875 7.1875,-2.5 7.1875,-2.6875 7,-2.6875 6.859375,-2.6875 h -2.78125 v -2.796875 c 0,-0.140625 0,-0.328125 -0.203125,-0.328125 -0.203125,0 -0.203125,0.1875 -0.203125,0.328125 V -2.6875 h -2.78125 c -0.140625,0 -0.328125,0 -0.328125,0.1875 0,0.203125 0.1875,0.203125 0.328125,0.203125 h 2.78125 V 0.5 c 0,0.140625 0,0.328125 0.203125,0.328125 0.203125,0 0.203125,-0.1875 0.203125,-0.328125 z m 0,0"
   id="path493" />
      </g>
    </g>
  </defs>
  <g
   fill="#000000"
   fill-opacity="1"
   id="id-c84be6a9-7a15-4f30-b3b6-9ca66eba2baf-6"
   transform="translate(-149.275,-128.952)">
    <g
   transform="translate(148.712,134.765)"
   id="g3906-1"><path
   d="m 4.078125,-2.296875 h 2.78125 C 7,-2.296875 7.1875,-2.296875 7.1875,-2.5 7.1875,-2.6875 7,-2.6875 6.859375,-2.6875 h -2.78125 v -2.796875 c 0,-0.140625 0,-0.328125 -0.203125,-0.328125 -0.203125,0 -0.203125,0.1875 -0.203125,0.328125 V -2.6875 h -2.78125 c -0.140625,0 -0.328125,0 -0.328125,0.1875 0,0.203125 0.1875,0.203125 0.328125,0.203125 h 2.78125 V 0.5 c 0,0.140625 0,0.328125 0.203125,0.328125 0.203125,0 0.203125,-0.1875 0.203125,-0.328125 z m 0,0"
   id="id-31dec9b4-6010-4ec1-99aa-a948ddca6a03-5" />
      </g></g>
</g><g
             transform="matrix(0.352778,0,0,0.352778,180.92509,94.862017)"
             ns1:version="1.10.2"
             ns1:texconverter="pdflatex"
             ns1:pdfconverter="inkscape"
             ns1:text="$-$"
             ns1:preamble="/usr/share/inkscape/extensions/textext/default_packages.tex"
             ns1:scale="1.0"
             ns1:alignment="middle center"
             ns1:stroke-to-path="0"
             ns1:inkscapeversion="1.3.2"
             id="g4331-3-5"
             ns1:jacobian_sqrt="0.352778"><defs
   id="id-10a1335b-a9f6-4642-a956-1dcd1dd8f5eb-4">
    <g
   id="g508">
      <g
   id="g506">
        <path
   d="m 6.5625,-2.296875 c 0.171875,0 0.359375,0 0.359375,-0.203125 0,-0.1875 -0.1875,-0.1875 -0.359375,-0.1875 H 1.171875 c -0.171875,0 -0.34375,0 -0.34375,0.1875 0,0.203125 0.171875,0.203125 0.34375,0.203125 z m 0,0"
   id="path504" />
      </g>
    </g>
  </defs>
  <g
   fill="#000000"
   fill-opacity="1"
   id="id-90de3182-6e76-4d43-9b9f-00238a567846-6"
   transform="translate(-149.54,-132.077)">
    <g
   transform="translate(148.712,134.765)"
   id="g8390-9"><path
   d="m 6.5625,-2.296875 c 0.171875,0 0.359375,0 0.359375,-0.203125 0,-0.1875 -0.1875,-0.1875 -0.359375,-0.1875 H 1.171875 c -0.171875,0 -0.34375,0 -0.34375,0.1875 0,0.203125 0.171875,0.203125 0.34375,0.203125 z m 0,0"
   id="id-cd2caf00-6f73-4238-8854-2986a940e2f2-3" />
      </g></g>
</g></g><path
           style="fill:none;fill-opacity:1;stroke:#000000;stroke-width:0.3;stroke-linecap:butt;stroke-linejoin:miter;stroke-dasharray:none;stroke-opacity:1;paint-order:normal"
           d="m 158,95.999997 v -13 h 24 v 7.100486"
           id="path5"
           sodipodi:nodetypes="cccc"
           inkscape:label="cable_source" /><path
           style="display:inline;fill:none;fill-opacity:1;stroke:#000000;stroke-width:0.3;stroke-linecap:butt;stroke-linejoin:miter;stroke-dasharray:none;stroke-opacity:1;paint-order:normal"
           d="m 78.974673,91.731276 0.02533,-9.731278 h 13 v 13.999999"
           id="path6"
           sodipodi:nodetypes="cccc"
           inkscape:label="cable_drain" /><path
           style="display:inline;fill:none;fill-opacity:1;stroke:#000000;stroke-width:0.3;stroke-linecap:butt;stroke-linejoin:miter;stroke-miterlimit:1.6;stroke-dasharray:none;stroke-dashoffset:0;stroke-opacity:1;paint-order:normal"
           d="M 79,97.999996 V 110"
           id="path51"
           inkscape:label="cable_gate" /><path
           style="display:inline;fill:none;fill-opacity:1;stroke:#000000;stroke-width:0.3;stroke-linecap:square;stroke-linejoin:miter;stroke-dasharray:none;stroke-opacity:1;paint-order:normal"
           d="m 57.000002,88.999996 -1e-6,-6.999998 L 79,81.999996"
           id="path7"
           sodipodi:nodetypes="ccc" /><g
           id="g44"
           inkscape:label="vsource"
           style="display:inline"
           transform="translate(0,8.9958338)"><ellipse
             style="fill:none;fill-opacity:1;stroke:#000000;stroke-width:0.3;stroke-linecap:square;stroke-linejoin:miter;stroke-miterlimit:1.6;stroke-dasharray:none;stroke-dashoffset:0;stroke-opacity:1;paint-order:normal"
             id="ellipse1"
             cy="93.192719"
             cx="182"
             rx="2.9999959"
             ry="3.1343868" /><g
             transform="matrix(0.352778,0,0,0.352778,180.8316,90.813065)"
             ns1:version="1.10.2"
             ns1:texconverter="pdflatex"
             ns1:pdfconverter="inkscape"
             ns1:text="$+$"
             ns1:preamble="/usr/share/inkscape/extensions/textext/default_packages.tex"
             ns1:scale="1.0"
             ns1:alignment="middle center"
             ns1:stroke-to-path="0"
             ns1:inkscapeversion="1.3.2"
             id="g10"
             ns1:jacobian_sqrt="0.352778"><defs
   id="defs6">
    <g
   id="g525">
      <g
   id="g523">
        <path
   d="m 4.078125,-2.296875 h 2.78125 C 7,-2.296875 7.1875,-2.296875 7.1875,-2.5 7.1875,-2.6875 7,-2.6875 6.859375,-2.6875 h -2.78125 v -2.796875 c 0,-0.140625 0,-0.328125 -0.203125,-0.328125 -0.203125,0 -0.203125,0.1875 -0.203125,0.328125 V -2.6875 h -2.78125 c -0.140625,0 -0.328125,0 -0.328125,0.1875 0,0.203125 0.1875,0.203125 0.328125,0.203125 h 2.78125 V 0.5 c 0,0.140625 0,0.328125 0.203125,0.328125 0.203125,0 0.203125,-0.1875 0.203125,-0.328125 z m 0,0"
   id="path521" />
      </g>
    </g>
  </defs>
  <g
   fill="#000000"
   fill-opacity="1"
   id="g9"
   transform="translate(-149.275,-128.952)">
    <g
   transform="translate(148.712,134.765)"
   id="g8"><path
   d="m 4.078125,-2.296875 h 2.78125 C 7,-2.296875 7.1875,-2.296875 7.1875,-2.5 7.1875,-2.6875 7,-2.6875 6.859375,-2.6875 h -2.78125 v -2.796875 c 0,-0.140625 0,-0.328125 -0.203125,-0.328125 -0.203125,0 -0.203125,0.1875 -0.203125,0.328125 V -2.6875 h -2.78125 c -0.140625,0 -0.328125,0 -0.328125,0.1875 0,0.203125 0.1875,0.203125 0.328125,0.203125 h 2.78125 V 0.5 c 0,0.140625 0,0.328125 0.203125,0.328125 0.203125,0 0.203125,-0.1875 0.203125,-0.328125 z m 0,0"
   id="path8" />
      </g></g>
</g><g
             transform="matrix(0.352778,0,0,0.352778,180.92509,94.862017)"
             ns1:version="1.10.2"
             ns1:texconverter="pdflatex"
             ns1:pdfconverter="inkscape"
             ns1:text="$-$"
             ns1:preamble="/usr/share/inkscape/extensions/textext/default_packages.tex"
             ns1:scale="1.0"
             ns1:alignment="middle center"
             ns1:stroke-to-path="0"
             ns1:inkscapeversion="1.3.2"
             id="g43"
             ns1:jacobian_sqrt="0.352778"><defs
   id="defs12">
    <g
   id="g536">
      <g
   id="g534">
        <path
   d="m 6.5625,-2.296875 c 0.171875,0 0.359375,0 0.359375,-0.203125 0,-0.1875 -0.1875,-0.1875 -0.359375,-0.1875 H 1.171875 c -0.171875,0 -0.34375,0 -0.34375,0.1875 0,0.203125 0.171875,0.203125 0.34375,0.203125 z m 0,0"
   id="path532" />
      </g>
    </g>
  </defs>
  <g
   fill="#000000"
   fill-opacity="1"
   id="g42"
   transform="translate(-149.54,-132.077)">
    <g
   transform="translate(148.712,134.765)"
   id="g41"><path
   d="m 6.5625,-2.296875 c 0.171875,0 0.359375,0 0.359375,-0.203125 0,-0.1875 -0.1875,-0.1875 -0.359375,-0.1875 H 1.171875 c -0.171875,0 -0.34375,0 -0.34375,0.1875 0,0.203125 0.171875,0.203125 0.34375,0.203125 z m 0,0"
   id="path41" />
      </g></g>
</g></g></g><rect
         style="display:none;fill:url(#linearGradient9);fill-opacity:1;stroke:none;stroke-width:2.149;stroke-dasharray:none;stroke-dashoffset:32.1389;paint-order:stroke fill markers"
         id="rect2"
         width="54.000004"
         height="47.000004"
         x="97"
         y="63"
         inkscape:label="light" /><g
         data-mml-node="math"
         id="g3-8"
         transform="matrix(0.00478932,0,0,-0.00478932,129.06318,82.292145)"
         style="display:none;fill:#000000;stroke:#000000;stroke-width:0"
         inkscape:label="hw"
         clip-path="url(#clipPath7534)"><g
           data-mml-node="mi"
           id="g1"><use
             data-c="210F"
             xlink:href="#MJX-20-TEX-V-210F"
             id="use1-57" /></g><g
           data-mml-node="mi"
           transform="translate(562)"
           id="g2-41"><use
             data-c="1D714"
             xlink:href="#MJX-20-TEX-I-1D714"
             id="use2-85" /></g></g><g
         data-mml-node="mtext"
         id="g4"
         transform="matrix(0.00478898,0,0,-0.00478898,65.536673,103.79497)"
         style="display:none;fill:#000000;stroke:#000000;stroke-width:0"
         inkscape:label="gate_text"
         clip-path="url(#clipPath7528)"><use
           data-c="47"
           xlink:href="#MJX-39-TEX-N-47"
           id="use1" /><use
           data-c="61"
           xlink:href="#MJX-39-TEX-N-61"
           transform="translate(785)"
           id="use2" /><use
           data-c="74"
           xlink:href="#MJX-39-TEX-N-74"
           transform="translate(1285)"
           id="use3" /><use
           data-c="65"
           xlink:href="#MJX-39-TEX-N-65"
           transform="translate(1674)"
           id="use4" /></g><g
         data-mml-node="mtext"
         id="g6-9"
         transform="matrix(0.00478885,0,0,-0.00478885,162.77096,81.394644)"
         style="display:none;fill:#000000;stroke:#000000;stroke-width:0"
         inkscape:label="source_text"
         clip-path="url(#clipPath7522)"><use
           data-c="53"
           xlink:href="#MJX-38-TEX-N-53"
           id="use1-7" /><use
           data-c="6F"
           xlink:href="#MJX-38-TEX-N-6F"
           transform="translate(556)"
           id="use2-7" /><use
           data-c="75"
           xlink:href="#MJX-38-TEX-N-75"
           transform="translate(1056)"
           id="use3-6" /><use
           data-c="72"
           xlink:href="#MJX-38-TEX-N-72"
           transform="translate(1612)"
           id="use4-7" /><use
           data-c="63"
           xlink:href="#MJX-38-TEX-N-63"
           transform="translate(2004)"
           id="use5" /><use
           data-c="65"
           xlink:href="#MJX-38-TEX-N-65"
           transform="translate(2448)"
           id="use6" /></g><g
         data-mml-node="mtext"
         id="g5-6"
         transform="matrix(0.00478843,0,0,-0.00478843,69.290769,79.489837)"
         style="display:none;fill:#000000;stroke:#000000;stroke-width:0"
         inkscape:label="drain_text"
         clip-path="url(#clipPath7516)"><use
           data-c="44"
           xlink:href="#MJX-36-TEX-N-44"
           id="use1-3" /><use
           data-c="72"
           xlink:href="#MJX-36-TEX-N-72"
           transform="translate(764)"
           id="use2-9" /><use
           data-c="61"
           xlink:href="#MJX-36-TEX-N-61"
           transform="translate(1156)"
           id="use3-4" /><use
           data-c="69"
           xlink:href="#MJX-36-TEX-N-69"
           transform="translate(1656)"
           id="use4-8" /><use
           data-c="6E"
           xlink:href="#MJX-36-TEX-N-6E"
           transform="translate(1934)"
           id="use5-1" /></g><g
         data-mml-node="msup"
         id="g6-90"
         transform="matrix(0.00478881,0,0,-0.00478881,145.80853,117.21036)"
         style="fill:#ffffff;fill-opacity:1;stroke:#000000;stroke-width:0"
         inkscape:label="si++_text"
         clip-path="url(#clipPath7510)"><g
           data-mml-node="mtext"
           id="g2"
           style="fill:#ffffff;fill-opacity:1"><use
             data-c="53"
             xlink:href="#MJX-34-TEX-N-53"
             id="use1-8"
             style="fill:#ffffff;fill-opacity:1" /><use
             data-c="69"
             xlink:href="#MJX-34-TEX-N-69"
             transform="translate(556)"
             id="use2-8"
             style="fill:#ffffff;fill-opacity:1" /></g><g
           data-mml-node="TeXAtom"
           transform="matrix(0.707,0,0,0.707,867,432.1)"
           data-mjx-texclass="ORD"
           id="g5-5"
           style="fill:#ffffff;fill-opacity:1"><g
             data-mml-node="mo"
             id="g3"
             style="fill:#ffffff;fill-opacity:1"><use
               data-c="2B"
               xlink:href="#MJX-34-TEX-N-2B"
               id="use3-0"
               style="fill:#ffffff;fill-opacity:1" /></g><g
             data-mml-node="mo"
             transform="translate(778)"
             id="g4-9"
             style="fill:#ffffff;fill-opacity:1"><use
               data-c="2B"
               xlink:href="#MJX-34-TEX-N-2B"
               id="use4-6"
               style="fill:#ffffff;fill-opacity:1" /></g></g></g><g
         data-mml-node="msub"
         id="g5-61"
         transform="matrix(0.00478788,0,0,-0.00478788,145.7258,109.85558)"
         style="fill:#000000;stroke:#000000;stroke-width:0"
         inkscape:label="sio2_text"
         clip-path="url(#clipPath7504)"><g
           data-mml-node="mtext"
           id="g3-1"><use
             data-c="53"
             xlink:href="#MJX-28-TEX-N-53"
             id="use1-5" /><use
             data-c="69"
             xlink:href="#MJX-28-TEX-N-69"
             transform="translate(556)"
             id="use2-98" /><use
             data-c="4F"
             xlink:href="#MJX-28-TEX-N-4F"
             transform="translate(834)"
             id="use3-48" /></g><g
           data-mml-node="mn"
           transform="matrix(0.707,0,0,0.707,1645,-150)"
           id="g4-1"><use
             data-c="32"
             xlink:href="#MJX-28-TEX-N-32"
             id="use4-0" /></g></g><g
         data-mml-node="math"
         id="g8-3"
         transform="matrix(0.00478747,0,0,-0.00478747,141.52819,92.49997)"
         style="fill:#000000;stroke:#000000;stroke-width:0"
         inkscape:label="al2o3_text"
         clip-path="url(#clipPath7492)"><g
           data-mml-node="msub"
           id="g4-8"><g
             data-mml-node="mtext"
             id="g2-6"><use
               data-c="41"
               xlink:href="#MJX-13-TEX-N-41"
               id="use1-0" /><use
               data-c="6C"
               xlink:href="#MJX-13-TEX-N-6C"
               transform="translate(750)"
               id="use2-48" /></g><g
             data-mml-node="mn"
             transform="matrix(0.707,0,0,0.707,1061,-150)"
             id="g3-88"><use
               data-c="32"
               xlink:href="#MJX-13-TEX-N-32"
               id="use3-9" /></g></g><g
           data-mml-node="msub"
           transform="translate(1464.6)"
           id="g7-7"><g
             data-mml-node="mtext"
             id="g5-7"><use
               data-c="4F"
               xlink:href="#MJX-13-TEX-N-4F"
               id="use4-64" /></g><g
             data-mml-node="mn"
             transform="matrix(0.707,0,0,0.707,811,-150)"
             id="g6-3"><use
               data-c="33"
               xlink:href="#MJX-13-TEX-N-33"
               id="use5-0" /></g></g></g><path
         style="fill:none;fill-opacity:1;stroke:#000000;stroke-width:0.3;stroke-linecap:butt;stroke-linejoin:miter;stroke-miterlimit:1.6;stroke-dasharray:none;stroke-dashoffset:0;stroke-opacity:1;marker-start:url(#Arrow5);paint-order:stroke fill markers"
         d="M 92.66437,94.702614 C 86.131808,94.228941 92.028818,90.354204 92.57651,84.527416"
         id="path58-6"
         sodipodi:nodetypes="cc"
         clip-path="url(#clipPath7486)" /><text
         xml:space="preserve"
         style="font-weight:500;font-size:4.23333px;font-family:'CMU Serif';-inkscape-font-specification:'CMU Serif Medium';text-align:center;text-anchor:middle;fill:#ffffff;fill-opacity:0.9;stroke:none;stroke-width:0.1;stroke-linecap:square;stroke-linejoin:round;stroke-miterlimit:1.6;stroke-dasharray:none;paint-order:normal"
         x="150.54033"
         y="104.77962"
         id="text4039"><tspan
           sodipodi:role="line"
           id="tspan4037"
           style="font-size:4.23333px;fill:#ffffff;stroke:#ffffff;stroke-width:0.1;stroke-dasharray:none"
           x="150.54033"
           y="104.77962">Ti</tspan></text><text
         xml:space="preserve"
         style="font-weight:500;font-size:4.7625px;font-family:'CMU Serif';-inkscape-font-specification:'CMU Serif Medium';text-align:center;text-anchor:middle;fill:#000000;fill-opacity:0.9;stroke:none;stroke-width:0.1;stroke-linecap:square;stroke-linejoin:round;stroke-miterlimit:1.6;stroke-dasharray:none;paint-order:normal"
         x="98.845917"
         y="83.590179"
         id="text3981"
         clip-path="url(#clipPath7341)"><tspan
           sodipodi:role="line"
           id="tspan3979"
           style="font-weight:normal;fill:#000000;stroke:#000000;stroke-width:0.1;stroke-dasharray:none"
           x="98.845917"
           y="83.590179">Graphene</tspan></text><text
         xml:space="preserve"
         style="font-weight:500;font-size:4.7625px;font-family:'CMU Serif';-inkscape-font-specification:'CMU Serif Medium';text-align:center;text-anchor:middle;fill:#000000;fill-opacity:0.9;fill-rule:nonzero;stroke:#000000;stroke-width:0.1;stroke-linecap:square;stroke-linejoin:round;stroke-miterlimit:1.6;stroke-dasharray:none;stroke-dashoffset:0;stroke-opacity:1;paint-order:normal"
         x="149.95621"
         y="100.52847"
         id="text31257"><tspan
           sodipodi:role="line"
           style="font-size:4.7625px;fill:#000000;stroke:#000000;stroke-width:0.1;stroke-dasharray:none"
           x="149.95621"
           y="100.52847"
           id="tspan31309">Au</tspan></text></g></g><g
     inkscape:groupmode="layer"
     id="layer2"
     inkscape:label="Layer 2"><path
       style="fill:#ffffff;fill-opacity:0.9;fill-rule:nonzero;stroke:#000000;stroke-width:0.3;stroke-linecap:square;stroke-linejoin:round;stroke-miterlimit:1.6;stroke-dasharray:none;stroke-dashoffset:0;stroke-opacity:1;paint-order:normal"
       d="m 81.668552,10.902491 h 6.507636"
       id="path31700"
       sodipodi:nodetypes="cc" /><path
       style="fill:#ffffff;fill-opacity:0.9;fill-rule:nonzero;stroke:#000000;stroke-width:0.3;stroke-linecap:square;stroke-linejoin:round;stroke-miterlimit:1.6;stroke-dasharray:none;stroke-dashoffset:0;stroke-opacity:1;paint-order:normal"
       d="m 85.501959,18.661364 h 5.32003"
       id="path31700-6"
       sodipodi:nodetypes="cc" /><path
       style="fill:#ffffff;fill-opacity:0.9;fill-rule:nonzero;stroke:#000000;stroke-width:0.3;stroke-linecap:square;stroke-linejoin:round;stroke-miterlimit:1.6;stroke-dasharray:none;stroke-dashoffset:0;stroke-opacity:1;paint-order:normal"
       d="m 85.501964,23.174227 h 5.320027"
       id="path31700-6-7"
       sodipodi:nodetypes="cc" /><path
       style="fill:#ffffff;fill-opacity:0.9;fill-rule:nonzero;stroke:#000000;stroke-width:0.3;stroke-linecap:square;stroke-linejoin:round;stroke-miterlimit:1.6;stroke-dasharray:none;stroke-dashoffset:0;stroke-opacity:1;paint-order:normal"
       d="m 85.50196,28.34469 h 5.320027"
       id="path31700-6-0"
       sodipodi:nodetypes="cc" /></g></svg>
